<svg viewBox="0 0 24 30" xmlns="http://www.w3.org/2000/svg">
<path d="M23.0002 2C23.0002 2 23.0001 2 23 2H16.5V0.5C16.5001 0.223938 16.2763 6.25131e-05 16.0002 1.30904e-08C16.0002 1.30904e-08 16.0001 1.30904e-08 16 1.30904e-08H8C7.72394 -6.24869e-05 7.50006 0.223687 7.5 0.49975C7.5 0.499812 7.5 0.499937 7.5 0.5V2H1C0.723938 1.99994 0.500063 2.22369 0.5 2.49975C0.5 2.49981 0.5 2.49994 0.5 2.5V29.5C0.499938 29.7761 0.723687 29.9999 0.99975 30C0.999812 30 0.999937 30 1 30H23C23.2761 30.0001 23.4999 29.7763 23.5 29.5002C23.5 29.5002 23.5 29.5001 23.5 29.5V2.5C23.5001 2.22394 23.2763 2.00006 23.0002 2ZM8.5 1H15.5V4H8.5V1ZM22.5 29H1.5V3H7.5V4.5C7.49994 4.77606 7.72369 4.99994 7.99975 5C7.99981 5 7.99994 5 8 5H16C16.2761 5.00006 16.4999 4.77631 16.5 4.50025C16.5 4.50019 16.5 4.50006 16.5 4.5V3H22.5V29Z" fill="#FDFDFE"/>
<path d="M13.5 23H2.5V24H13.5V23Z"/>
<path d="M21.5 23H14.5V24H21.5V23Z"/>
<path d="M21.5 25H2.5V26H21.5V25Z"/>
<path d="M10.5 27H2.5V28H10.5V27Z"/>
<path d="M21.5 27H11.5V28H21.5V27Z"/>
<path d="M6.00025 14.5C6.00019 14.5 6.00006 14.5 6 14.5H3C2.72394 14.4999 2.50006 14.7237 2.5 14.9998C2.5 14.9998 2.5 14.9999 2.5 15V21.5C2.49994 21.7761 2.72369 21.9999 2.99975 22C2.99981 22 2.99994 22 3 22H6C6.27606 22.0001 6.49994 21.7763 6.5 21.5003C6.5 21.5002 6.5 21.5001 6.5 21.5V15C6.50006 14.7239 6.27631 14.5001 6.00025 14.5ZM5.5 21H3.5V15.5H5.5V21Z"/>
<path d="M11.0002 12.5C11.0002 12.5 11.0001 12.5 11 12.5H8C7.72394 12.4999 7.50006 12.7237 7.5 12.9998C7.5 12.9998 7.5 12.9999 7.5 13V21.5C7.49994 21.7761 7.72369 21.9999 7.99975 22C7.99981 22 7.99994 22 8 22H11C11.2761 22.0001 11.4999 21.7763 11.5 21.5003C11.5 21.5002 11.5 21.5001 11.5 21.5V13C11.5001 12.7239 11.2763 12.5001 11.0002 12.5ZM10.5 21H8.5V13.5H10.5V21Z"/>
<path d="M16.0003 10.5C16.0002 10.5 16.0001 10.5 16 10.5H13C12.7239 10.4999 12.5001 10.7237 12.5 10.9998C12.5 10.9998 12.5 10.9999 12.5 11V21.5C12.4999 21.7761 12.7237 21.9999 12.9998 22C12.9998 22 12.9999 22 13 22H16C16.2761 22.0001 16.4999 21.7763 16.5 21.5002C16.5 21.5002 16.5 21.5001 16.5 21.5V11C16.5001 10.7239 16.2763 10.5001 16.0003 10.5ZM15.5 21H13.5V11.5H15.5V21Z"/>
<path d="M21.0003 8.5C21.0002 8.5 21.0001 8.5 21 8.5H18C17.7239 8.49994 17.5001 8.72369 17.5 8.99975C17.5 8.99981 17.5 8.99994 17.5 9V21.5C17.4999 21.7761 17.7237 21.9999 17.9998 22C17.9998 22 17.9999 22 18 22H21C21.2761 22.0001 21.4999 21.7763 21.5 21.5002C21.5 21.5002 21.5 21.5001 21.5 21.5V9C21.5001 8.72394 21.2763 8.50006 21.0003 8.5ZM20.5 21H18.5V9.5H20.5V21Z"/>
<path d="M20.9019 5.00977L15.9019 6.00977C15.8379 6.02258 15.777 6.04783 15.7227 6.08402L11.3486 9.00002H6.99998C6.90629 9.00002 6.81448 9.02639 6.73511 9.07621L2.73511 11.5762L3.26492 12.4239L7.14329 10H11.5C11.5987 9.99996 11.6952 9.97077 11.7774 9.91602L16.1951 6.9707L21.0982 5.9902L20.9019 5.00977Z" fill="#FDFDFE"/>
</svg>
