<svg viewBox="0 0 30 30" xmlns="http://www.w3.org/2000/svg">
<path d="M28.125 17.8125H23.9062V15.9375C23.9062 15.5645 23.7581 15.2069 23.4944 14.9431C23.2306 14.6794 22.873 14.5312 22.5 14.5312H15.4688V12.1875H20.1562C20.5292 12.1875 20.8869 12.0393 21.1506 11.7756C21.4143 11.5119 21.5625 11.1542 21.5625 10.7812V2.34375C21.5625 1.97079 21.4143 1.6131 21.1506 1.34938C20.8869 1.08566 20.5292 0.9375 20.1562 0.9375H9.84375C9.47079 0.9375 9.1131 1.08566 8.84938 1.34938C8.58566 1.6131 8.4375 1.97079 8.4375 2.34375V10.7812C8.4375 11.1542 8.58566 11.5119 8.84938 11.7756C9.1131 12.0393 9.47079 12.1875 9.84375 12.1875H14.5312V14.5312H8.4375C8.06454 14.5312 7.70685 14.6794 7.44313 14.9431C7.17941 15.2069 7.03125 15.5645 7.03125 15.9375V17.8125H2.34375C1.97079 17.8125 1.6131 17.9607 1.34938 18.2244C1.08566 18.4881 0.9375 18.8458 0.9375 19.2188V27.6562C0.9375 28.0292 1.08566 28.3869 1.34938 28.6506C1.6131 28.9143 1.97079 29.0625 2.34375 29.0625H12.6562C13.0292 29.0625 13.3869 28.9143 13.6506 28.6506C13.9143 28.3869 14.0625 28.0292 14.0625 27.6562V19.2188C14.0625 18.8458 13.9143 18.4881 13.6506 18.2244C13.3869 17.9607 13.0292 17.8125 12.6562 17.8125H7.96875V15.9375C7.96875 15.8132 8.01814 15.694 8.10604 15.606C8.19395 15.5181 8.31318 15.4688 8.4375 15.4688H22.5C22.6243 15.4688 22.7435 15.5181 22.8315 15.606C22.9194 15.694 22.9688 15.8132 22.9688 15.9375V17.8125H17.8125C17.4395 17.8125 17.0819 17.9607 16.8181 18.2244C16.5544 18.4881 16.4062 18.8458 16.4062 19.2188V27.6562C16.4062 28.0292 16.5544 28.3869 16.8181 28.6506C17.0819 28.9143 17.4395 29.0625 17.8125 29.0625H28.125C28.498 29.0625 28.8556 28.9143 29.1194 28.6506C29.3831 28.3869 29.5312 28.0292 29.5312 27.6562V19.2188C29.5312 18.8458 29.3831 18.4881 29.1194 18.2244C28.8556 17.9607 28.498 17.8125 28.125 17.8125ZM9.84375 1.875H20.1562C20.2806 1.875 20.3998 1.92439 20.4877 2.01229C20.5756 2.1002 20.625 2.21943 20.625 2.34375V2.8125H9.375V2.34375C9.375 2.21943 9.42439 2.1002 9.51229 2.01229C9.6002 1.92439 9.71943 1.875 9.84375 1.875ZM9.375 10.7812V3.75H20.625V10.7812C20.625 10.9056 20.5756 11.0248 20.4877 11.1127C20.3998 11.2006 20.2806 11.25 20.1562 11.25H9.84375C9.71943 11.25 9.6002 11.2006 9.51229 11.1127C9.42439 11.0248 9.375 10.9056 9.375 10.7812ZM12.6562 28.125H2.34375C2.21943 28.125 2.1002 28.0756 2.01229 27.9877C1.92439 27.8998 1.875 27.7806 1.875 27.6562V20.625H13.125V27.6562C13.125 27.7806 13.0756 27.8998 12.9877 27.9877C12.8998 28.0756 12.7806 28.125 12.6562 28.125ZM13.125 19.2188V19.6875H1.875V19.2188C1.875 19.0944 1.92439 18.9752 2.01229 18.8873C2.1002 18.7994 2.21943 18.75 2.34375 18.75H12.6562C12.7806 18.75 12.8998 18.7994 12.9877 18.8873C13.0756 18.9752 13.125 19.0944 13.125 19.2188ZM17.8125 18.75H28.125C28.2493 18.75 28.3685 18.7994 28.4565 18.8873C28.5444 18.9752 28.5938 19.0944 28.5938 19.2188V19.6875H17.3438V19.2188C17.3438 19.0944 17.3931 18.9752 17.481 18.8873C17.569 18.7994 17.6882 18.75 17.8125 18.75ZM28.125 28.125H17.8125C17.6882 28.125 17.569 28.0756 17.481 27.9877C17.3931 27.8998 17.3438 27.7806 17.3438 27.6562V20.625H28.5938V27.6562C28.5938 27.7806 28.5444 27.8998 28.4565 27.9877C28.3685 28.0756 28.2493 28.125 28.125 28.125Z"/>
<path d="M21.4251 22.6374C21.3372 22.5495 21.218 22.5001 21.0937 22.5001C20.9694 22.5001 20.8502 22.5495 20.7623 22.6374L19.3561 24.0436C19.2682 24.1315 19.2188 24.2507 19.2188 24.375C19.2188 24.4993 19.2682 24.6185 19.3561 24.7064L20.7623 26.1127C20.8507 26.1981 20.9692 26.2453 21.0921 26.2442C21.215 26.2432 21.3325 26.1939 21.4194 26.107C21.5064 26.0201 21.5556 25.9025 21.5567 25.7796C21.5578 25.6567 21.5105 25.5383 21.4251 25.4499L20.3503 24.375L21.4251 23.3002C21.513 23.2123 21.5624 23.0931 21.5624 22.9688C21.5624 22.8445 21.513 22.7253 21.4251 22.6374Z"/>
<path d="M25.1751 22.6374C25.0867 22.552 24.9683 22.5047 24.8454 22.5058C24.7225 22.5069 24.605 22.5562 24.518 22.6431C24.4311 22.73 24.3818 22.8476 24.3808 22.9705C24.3797 23.0934 24.4269 23.2118 24.5123 23.3002L25.5872 24.375L24.5123 25.4499C24.4676 25.4931 24.4319 25.5448 24.4073 25.602C24.3827 25.6592 24.3698 25.7207 24.3692 25.783C24.3687 25.8452 24.3806 25.9069 24.4041 25.9645C24.4277 26.0221 24.4625 26.0745 24.5065 26.1185C24.5505 26.1625 24.6029 26.1973 24.6605 26.2209C24.7181 26.2445 24.7798 26.2563 24.8421 26.2558C24.9043 26.2552 24.9658 26.2423 25.023 26.2177C25.0802 26.1932 25.1319 26.1575 25.1751 26.1127L26.5814 24.7064C26.6693 24.6185 26.7186 24.4993 26.7186 24.375C26.7186 24.2507 26.6693 24.1315 26.5814 24.0436L25.1751 22.6374Z"/>
<path d="M23.5514 22.0453C23.4308 22.0151 23.3032 22.034 23.1965 22.0979C23.0899 22.1618 23.013 22.2655 22.9828 22.3861L22.0453 26.1361C22.0151 26.2567 22.034 26.3843 22.098 26.491C22.1619 26.5976 22.2655 26.6745 22.3861 26.7047C22.4233 26.7141 22.4616 26.7188 22.5 26.7187C22.6044 26.7186 22.7058 26.6837 22.7881 26.6194C22.8704 26.5551 22.9289 26.4652 22.9542 26.3639L23.8917 22.6139C23.922 22.4934 23.9031 22.3658 23.8393 22.2592C23.7755 22.1525 23.6719 22.0756 23.5514 22.0453Z"/>
<path d="M13.4564 5.76237C13.3685 5.67449 13.2493 5.62512 13.125 5.62512C13.0007 5.62512 12.8815 5.67449 12.7936 5.76237L11.3874 7.16861C11.2995 7.25652 11.2501 7.37572 11.2501 7.50002C11.2501 7.62432 11.2995 7.74352 11.3874 7.83143L12.7936 9.23768C12.882 9.32306 13.0004 9.37031 13.1233 9.36924C13.2462 9.36817 13.3638 9.31887 13.4507 9.23196C13.5376 9.14505 13.5869 9.02749 13.588 8.90458C13.589 8.78168 13.5418 8.66327 13.4564 8.57486L12.3816 7.50002L13.4564 6.42518C13.5443 6.33727 13.5937 6.21807 13.5937 6.09377C13.5937 5.96948 13.5443 5.85027 13.4564 5.76237Z"/>
<path d="M17.2064 5.76232C17.118 5.67693 16.9996 5.62969 16.8767 5.63076C16.7538 5.63182 16.6362 5.68112 16.5493 5.76803C16.4624 5.85494 16.4131 5.97251 16.412 6.09541C16.411 6.21832 16.4582 6.33673 16.5436 6.42513L17.6184 7.49998L16.5436 8.57482C16.4988 8.61806 16.4631 8.66979 16.4385 8.72697C16.414 8.78416 16.401 8.84567 16.4005 8.90791C16.4 8.97015 16.4118 9.03188 16.4354 9.08949C16.459 9.14709 16.4938 9.19943 16.5378 9.24344C16.5818 9.28746 16.6341 9.32226 16.6917 9.34583C16.7493 9.3694 16.8111 9.38126 16.8733 9.38072C16.9355 9.38018 16.9971 9.36725 17.0542 9.34268C17.1114 9.31811 17.1632 9.2824 17.2064 9.23763L18.6126 7.83138C18.7005 7.74348 18.7499 7.62427 18.7499 7.49998C18.7499 7.37568 18.7005 7.25647 18.6126 7.16857L17.2064 5.76232Z"/>
<path d="M15.5827 5.1703C15.4621 5.14009 15.3344 5.15903 15.2278 5.22293C15.1212 5.28684 15.0443 5.39049 15.0141 5.51108L14.0766 9.26107C14.0464 9.38167 14.0653 9.50932 14.1292 9.61595C14.1931 9.72258 14.2968 9.79945 14.4173 9.82967C14.4546 9.83912 14.4928 9.84384 14.5313 9.84373C14.6357 9.84362 14.7371 9.80865 14.8194 9.74437C14.9016 9.68009 14.9601 9.59017 14.9855 9.48889L15.923 5.73889C15.9532 5.61837 15.9343 5.49077 15.8705 5.38415C15.8067 5.27753 15.7032 5.20061 15.5827 5.1703Z"/>
<path d="M5.95641 22.6374C5.86851 22.5495 5.7493 22.5001 5.62501 22.5001C5.50071 22.5001 5.3815 22.5495 5.2936 22.6374L3.88735 24.0436C3.79947 24.1315 3.75011 24.2507 3.75011 24.375C3.75011 24.4993 3.79947 24.6185 3.88735 24.7064L5.2936 26.1127C5.38201 26.1981 5.50041 26.2453 5.62332 26.2442C5.74622 26.2432 5.86379 26.1939 5.9507 26.107C6.03761 26.0201 6.08691 25.9025 6.08798 25.7796C6.08905 25.6567 6.0418 25.5383 5.95641 25.4499L4.88157 24.375L5.95641 23.3002C6.04429 23.2123 6.09366 23.0931 6.09366 22.9688C6.09366 22.8445 6.04429 22.7253 5.95641 22.6374Z"/>
<path d="M9.70641 22.6374C9.61801 22.552 9.4996 22.5047 9.37669 22.5058C9.25379 22.5069 9.13622 22.5562 9.04931 22.6431C8.9624 22.73 8.9131 22.8476 8.91204 22.9705C8.91097 23.0934 8.95821 23.2118 9.0436 23.3002L10.1184 24.375L9.0436 25.4499C8.99883 25.4931 8.96312 25.5448 8.93855 25.602C8.91399 25.6592 8.90106 25.7207 8.90052 25.783C8.89997 25.8452 8.91183 25.9069 8.9354 25.9645C8.95897 26.0221 8.99378 26.0745 9.03779 26.1185C9.0818 26.1625 9.13414 26.1973 9.19175 26.2209C9.24936 26.2445 9.31108 26.2563 9.37332 26.2558C9.43556 26.2552 9.49707 26.2423 9.55426 26.2177C9.61145 26.1932 9.66317 26.1575 9.70641 26.1127L11.1127 24.7064C11.2005 24.6185 11.2499 24.4993 11.2499 24.375C11.2499 24.2507 11.2005 24.1315 11.1127 24.0436L9.70641 22.6374Z"/>
<path d="M8.08265 22.0453C7.96206 22.0151 7.83441 22.034 7.72778 22.0979C7.62115 22.1618 7.54427 22.2655 7.51406 22.3861L6.57656 26.1361C6.54636 26.2567 6.56529 26.3843 6.6292 26.491C6.69311 26.5976 6.79676 26.6745 6.91734 26.7047C6.95457 26.7141 6.99284 26.7188 7.03125 26.7187C7.13567 26.7186 7.23706 26.6837 7.31934 26.6194C7.40163 26.5551 7.46009 26.4652 7.48547 26.3639L8.42296 22.6139C8.45319 22.4934 8.43432 22.3658 8.3705 22.2592C8.30669 22.1525 8.20315 22.0756 8.08265 22.0453Z"/>
</svg>
