<svg viewBox="0 0 30 30" xmlns="http://www.w3.org/2000/svg">
<path d="M27.6562 0.9375H2.34375C1.97079 0.9375 1.6131 1.08566 1.34938 1.34938C1.08566 1.6131 0.9375 1.97079 0.9375 2.34375V27.6562C0.9375 28.0292 1.08566 28.3869 1.34938 28.6506C1.6131 28.9143 1.97079 29.0625 2.34375 29.0625H27.6562C28.0292 29.0625 28.3869 28.9143 28.6506 28.6506C28.9143 28.3869 29.0625 28.0292 29.0625 27.6562V2.34375C29.0625 1.97079 28.9143 1.6131 28.6506 1.34938C28.3869 1.08566 28.0292 0.9375 27.6562 0.9375ZM28.125 27.6562C28.125 27.7806 28.0756 27.8998 27.9877 27.9877C27.8998 28.0756 27.7806 28.125 27.6562 28.125H2.34375C2.21943 28.125 2.1002 28.0756 2.01229 27.9877C1.92439 27.8998 1.875 27.7806 1.875 27.6562V5.625H28.125V27.6562ZM1.875 4.6875V2.34375C1.875 2.21943 1.92439 2.1002 2.01229 2.01229C2.1002 1.92439 2.21943 1.875 2.34375 1.875H27.6562C27.7806 1.875 27.8998 1.92439 27.9877 2.01229C28.0756 2.1002 28.125 2.21943 28.125 2.34375V4.6875H1.875Z"/>
<path d="M2.94844 2.94838C2.8621 3.03777 2.81343 3.15692 2.8125 3.28119C2.81324 3.34245 2.82598 3.40296 2.85 3.45932C2.87151 3.51726 2.90506 3.56998 2.94844 3.614C3.0367 3.70227 3.15642 3.75186 3.28125 3.75186C3.40608 3.75186 3.5258 3.70227 3.61406 3.614C3.70233 3.52574 3.75192 3.40602 3.75192 3.28119C3.75192 3.15637 3.70233 3.03665 3.61406 2.94838C3.52341 2.86474 3.40459 2.8183 3.28125 2.8183C3.15791 2.8183 3.03909 2.86474 2.94844 2.94838Z"/>
<path d="M4.82344 2.94842C4.73786 3.0383 4.68932 3.15714 4.6875 3.28123C4.6883 3.31267 4.69143 3.34401 4.69688 3.37498C4.70198 3.40435 4.71146 3.4328 4.725 3.45936C4.73524 3.48923 4.74943 3.51761 4.76719 3.54373C4.78449 3.56829 4.80328 3.59177 4.82344 3.61404C4.9123 3.70119 5.03179 3.75001 5.15625 3.75001C5.28071 3.75001 5.4002 3.70119 5.48906 3.61404L5.54531 3.54373C5.56307 3.51761 5.57725 3.48923 5.5875 3.45936C5.60104 3.4328 5.61052 3.40435 5.61562 3.37498C5.62106 3.34401 5.6242 3.31267 5.625 3.28123C5.62554 3.18812 5.59834 3.09697 5.54687 3.01938C5.4954 2.94179 5.422 2.88129 5.33601 2.84559C5.25002 2.80988 5.15534 2.8006 5.06406 2.81891C4.97277 2.83723 4.889 2.88231 4.82344 2.94842Z"/>
<path d="M6.69842 2.94838C6.61127 3.03724 6.56245 3.15673 6.56245 3.28119C6.56245 3.40565 6.61127 3.52515 6.69842 3.614C6.74212 3.65771 6.79401 3.69238 6.85111 3.71603C6.90822 3.73969 6.96942 3.75186 7.03123 3.75186C7.09304 3.75186 7.15424 3.73969 7.21135 3.71603C7.26845 3.69238 7.32034 3.65771 7.36404 3.614C7.40775 3.5703 7.44242 3.51841 7.46607 3.46131C7.48972 3.40421 7.5019 3.343 7.5019 3.28119C7.5019 3.21938 7.48972 3.15818 7.46607 3.10108C7.44242 3.04397 7.40775 2.99209 7.36404 2.94838C7.27339 2.86474 7.15457 2.8183 7.03123 2.8183C6.90789 2.8183 6.78907 2.86474 6.69842 2.94838Z"/>
<path d="M27.1875 6.5625H2.8125V13.125H27.1875V6.5625ZM26.25 12.1875H3.75V7.5H26.25V12.1875Z"/>
<path d="M11.25 14.0625H2.8125V27.1875H11.25V14.0625ZM10.3125 26.25H3.75V15H10.3125V26.25Z"/>
<path d="M12.1875 20.1562H27.1875V14.0625H12.1875V20.1562ZM13.125 15H26.25V19.2188H13.125V15Z"/>
<path d="M12.1875 27.1875H27.1875V21.0938H12.1875V27.1875ZM13.125 22.0312H26.25V26.25H13.125V22.0312Z"/>
</svg>
