<svg viewBox="0 0 30 30" xmlns="http://www.w3.org/2000/svg">
<path d="M29.5 0H0.5C0.2 0 0 0.2 0 0.5V29.5C0 29.8 0.2 30 0.5 30H29.5C29.8 30 30 29.8 30 29.5V0.5C30 0.2 29.8 0 29.5 0ZM29 29H1V1H29V29Z"/>
<path d="M2.5 11H27.5C27.8 11 28 10.8 28 10.5V2.5C28 2.2 27.8 2 27.5 2H2.5C2.2 2 2 2.2 2 2.5V10.5C2 10.8 2.2 11 2.5 11ZM3 3H27V10H3V3Z"/>
<path d="M2.5 19H12.5C12.8 19 13 18.8 13 18.5V12.5C13 12.2 12.8 12 12.5 12H2.5C2.2 12 2 12.2 2 12.5V18.5C2 18.8 2.2 19 2.5 19ZM3 13H12V18H3V13Z"/>
<path d="M17 12H14V13H17V12Z"/>
<path d="M28 14H14V15H28V14Z"/>
<path d="M28 16H14V17H28V16Z"/>
<path d="M28 18H14V19H28V18Z"/>
<path d="M21 12H18V13H21V12Z"/>
<path d="M2.5 24H5.5C5.8 24 6 23.8 6 23.5V20.5C6 20.2 5.8 20 5.5 20H2.5C2.2 20 2 20.2 2 20.5V23.5C2 23.8 2.2 24 2.5 24ZM3 21H5V23H3V21Z"/>
<path d="M8 20.5H7V21.5H8V20.5Z"/>
<path d="M13 22.5H7V23.5H13V22.5Z"/>
<path d="M10 20.5H9V21.5H10V20.5Z"/>
<path d="M21 23.5V20.5C21 20.2 20.8 20 20.5 20H17.5C17.2 20 17 20.2 17 20.5V23.5C17 23.8 17.2 24 17.5 24H20.5C20.8 24 21 23.8 21 23.5ZM20 23H18V21H20V23Z"/>
<path d="M23 20.5H22V21.5H23V20.5Z"/>
<path d="M28 22.5H22V23.5H28V22.5Z"/>
<path d="M25 20.5H24V21.5H25V20.5Z"/>
<path d="M27 20.5H26V21.5H27V20.5Z"/>
<path d="M12 20.5H11V21.5H12V20.5Z"/>
<path d="M3.5 26H2.5V27H3.5V26Z"/>
<path d="M5.5 26H4.5V27H5.5V26Z"/>
<path d="M7.5 26H6.5V27H7.5V26Z"/>
<path d="M9.5 26H8.5V27H9.5V26Z"/>
<path d="M11.5 26H10.5V27H11.5V26Z"/>
<path d="M13.5 26H12.5V27H13.5V26Z"/>
<path d="M15.5 26H14.5V27H15.5V26Z"/>
<path d="M17.5 26H16.5V27H17.5V26Z"/>
<path d="M19.5 26H18.5V27H19.5V26Z"/>
<path d="M21.5 26H20.5V27H21.5V26Z"/>
<path d="M23.5 26H22.5V27H23.5V26Z"/>
<path d="M25.5 26H24.5V27H25.5V26Z"/>
<path d="M27.5 26H26.5V27H27.5V26Z"/>
</svg>
