<svg viewBox="0 0 30 30" xmlns="http://www.w3.org/2000/svg">
<path d="M5.35012 4.05629C5.35012 3.24353 4.68911 2.58252 3.87635 2.58252C3.06358 2.58252 2.40234 3.24353 2.40234 4.05629C2.40234 4.86906 3.06358 5.53007 3.87635 5.53007C4.68888 5.53007 5.35012 4.86906 5.35012 4.05629ZM3.28125 4.05629C3.28125 3.72831 3.54836 3.46143 3.87635 3.46143C4.20433 3.46143 4.47121 3.72831 4.47121 4.05629C4.47121 4.38428 4.20433 4.65116 3.87635 4.65116C3.54836 4.65116 3.28125 4.38428 3.28125 4.05629Z"/>
<path d="M7.37783 5.53007C8.19059 5.53007 8.85183 4.86906 8.85183 4.05629C8.85183 3.24353 8.19059 2.58252 7.37783 2.58252C6.56506 2.58252 5.90405 3.24353 5.90405 4.05629C5.90405 4.86906 6.56506 5.53007 7.37783 5.53007ZM7.37783 3.46143C7.70604 3.46143 7.97292 3.72831 7.97292 4.05629C7.97292 4.38428 7.70581 4.65116 7.37783 4.65116C7.04984 4.65116 6.78296 4.38428 6.78296 4.05629C6.78296 3.72831 7.04984 3.46143 7.37783 3.46143Z"/>
<path d="M10.8795 5.53007C11.692 5.53007 12.3532 4.86906 12.3532 4.05629C12.3532 3.24353 11.692 2.58252 10.8795 2.58252C10.0667 2.58252 9.40546 3.24353 9.40546 4.05629C9.40546 4.86906 10.0667 5.53007 10.8795 5.53007ZM10.8795 3.46143C11.2074 3.46143 11.4743 3.72831 11.4743 4.05629C11.4743 4.38428 11.2074 4.65116 10.8795 4.65116C10.5512 4.65116 10.2844 4.38428 10.2844 4.05629C10.2844 3.72831 10.5512 3.46143 10.8795 3.46143Z"/>
<path d="M15.7422 4.4961H26.4452C26.6881 4.4961 26.8847 4.29949 26.8847 4.05664C26.8847 3.8138 26.6881 3.61719 26.4452 3.61719H15.7422C15.4994 3.61719 15.3028 3.8138 15.3028 4.05664C15.3028 4.29949 15.4994 4.4961 15.7422 4.4961Z"/>
<path d="M28.1065 0.996094H1.77636C0.764696 0.996094 -0.0585938 1.81915 -0.0585938 2.83104V27.2793C-0.0585938 28.291 0.764696 29.1143 1.77636 29.1143H28.1065C29.1182 29.1143 29.9415 28.291 29.9415 27.2793V2.83104C29.9415 1.81915 29.1182 0.996094 28.1065 0.996094V0.996094ZM28.1065 28.2354H1.77636C1.24924 28.2354 0.820314 27.8064 0.820314 27.2793V7.11686H3.27004C3.51289 7.11686 3.7095 6.92025 3.7095 6.67741C3.7095 6.43479 3.51289 6.23796 3.27004 6.23796H0.820314V2.83104C0.820314 2.30393 1.24924 1.875 1.77636 1.875H28.1065C28.6336 1.875 29.0626 2.30393 29.0626 2.83104V6.23796H4.91067C4.66805 6.23796 4.47122 6.43479 4.47122 6.67741C4.47122 6.92025 4.66805 7.11686 4.91067 7.11686H29.0626V27.2793C29.0626 27.8064 28.6336 28.2354 28.1065 28.2354V28.2354Z"/>
<path d="M24.8088 8.2124H20.9682C20.201 8.2124 19.5768 8.83656 19.5768 9.60378V10.1355C19.1261 10.2785 18.7698 10.6351 18.6272 11.086L11.7632 11.1119C11.6202 10.6624 11.2643 10.3069 10.8145 10.1641V9.63262C10.8145 8.8654 10.1903 8.24124 9.42312 8.24124H5.58271C4.81549 8.24124 4.19133 8.8654 4.19133 9.63262V13.473C4.19133 14.2402 4.81549 14.8642 5.58271 14.8642H6.11417C6.25699 15.3146 6.61313 15.6708 7.06357 15.8136V17.6092C7.06357 18.5357 7.81728 19.2894 8.7438 19.2894H12.8834C13.0262 19.7396 13.3823 20.0957 13.8325 20.2386V20.8005C13.8325 21.551 14.4432 22.1616 15.1937 22.1616H15.789C15.9154 22.602 16.2445 22.9572 16.6684 23.12C16.542 23.3717 16.2816 23.5448 15.9815 23.5448H11.2876C11.1738 23.0382 10.7955 22.6308 10.3062 22.4754V21.9437C10.3062 21.1765 9.68199 20.5524 8.91478 20.5524H5.07413C4.30715 20.5524 3.68298 21.1765 3.68298 21.9437V25.7844C3.68298 26.5516 4.30715 27.1755 5.07413 27.1755H8.91478C9.68199 27.1755 10.3062 26.5516 10.3062 25.7844V25.2527C10.7154 25.1227 11.047 24.8167 11.2112 24.4237H15.9815C16.757 24.4237 17.4091 23.8849 17.583 23.1621C18.0673 23.0259 18.4502 22.6448 18.5892 22.1616H19.0945C19.8453 22.1616 20.4557 21.551 20.4557 20.8005V19.6444C20.4557 19.4015 20.2591 19.2049 20.0163 19.2049C19.7736 19.2049 19.5768 19.4015 19.5768 19.6444V20.8005C19.5768 21.0664 19.3605 21.2827 19.0945 21.2827H18.5651C18.1083 19.9717 16.264 19.982 15.8128 21.2827H15.1937C14.9277 21.2827 14.7114 21.0664 14.7114 20.8005V20.2386C14.8053 20.2088 14.8939 20.1706 14.9804 20.1223C14.9866 20.1161 15.7284 19.7414 15.7284 18.8499C15.7284 18.2184 15.3191 17.6552 14.7114 17.4613V16.8996C14.7114 16.6337 14.9277 16.4174 15.1937 16.4174H19.0945C19.3605 16.4174 19.5768 16.6337 19.5768 16.8996V18.0557C19.5768 18.2983 19.7736 18.4952 20.0163 18.4952C20.2591 18.4952 20.4557 18.2983 20.4557 18.0557V16.8996C20.4557 16.1491 19.845 15.5385 19.0945 15.5385H15.1937C14.4432 15.5385 13.8325 16.1491 13.8325 16.8996V17.4613C13.3823 17.6041 13.0262 17.9603 12.8834 18.4105H8.74403C8.30206 18.4105 7.94248 18.0509 7.94248 17.6092V15.8136C8.39269 15.6708 8.74884 15.3146 8.89166 14.8642H9.42335C10.1903 14.8642 10.8145 14.2402 10.8145 13.473V12.9413C11.2654 12.7983 11.6218 12.4417 11.7641 11.9908L18.6281 11.9649C18.7711 12.4145 19.127 12.7701 19.5768 12.9127V13.4444C19.5768 14.2116 20.201 14.8358 20.9682 14.8358H24.8088C25.5758 14.8358 26.2 14.2116 26.2 13.4444V9.60378C26.2 8.83656 25.5758 8.2124 24.8088 8.2124V8.2124ZM9.8667 24.4415C9.54809 24.4415 9.28923 24.1824 9.28923 23.8641C9.28923 23.5457 9.54832 23.2866 9.8667 23.2866C10.1851 23.2866 10.4442 23.5457 10.4442 23.8641C10.4442 24.1824 10.1851 24.4415 9.8667 24.4415ZM9.42724 25.7844C9.42724 26.0668 9.19744 26.2966 8.91478 26.2966H5.07413C4.79169 26.2966 4.56189 26.0668 4.56189 25.7844V21.9437C4.56189 21.6611 4.79169 21.4313 5.07413 21.4313H8.91478C9.19744 21.4313 9.42724 21.6611 9.42724 21.9437V22.4754C8.06448 22.9096 8.08027 24.8233 9.42724 25.2527V25.7844ZM17.7663 21.7625C17.765 22.0797 17.5066 22.3372 17.1889 22.3372C16.8714 22.3372 16.613 22.0797 16.6116 21.7625C16.684 20.9694 17.697 21.0028 17.7663 21.7625V21.7625ZM14.3597 18.2791C14.6366 18.3217 14.8495 18.5615 14.8495 18.8499C14.8495 19.169 14.5899 19.4274 14.272 19.4274C13.9534 19.4274 13.6945 19.1683 13.6945 18.8499C13.6945 18.4977 14.0092 18.2255 14.3597 18.2791V18.2791ZM10.375 12.1302C10.0567 12.1302 9.79757 11.8711 9.79757 11.5527C9.79757 11.2343 10.0567 10.9752 10.375 10.9752C10.6934 10.9752 10.9525 11.2343 10.9525 11.5527C10.9525 11.8711 10.6936 12.1302 10.375 12.1302ZM7.50303 15.0024C7.15284 15.0024 6.87818 14.69 6.9322 14.3371C6.97454 14.0601 7.21441 13.8475 7.50303 13.8475C7.82118 13.8475 8.0805 14.1061 8.0805 14.4247C8.0805 14.7433 7.8214 15.0024 7.50303 15.0024ZM9.93559 13.473C9.93559 13.7555 9.70579 13.9853 9.42312 13.9853H8.89166C8.66323 13.2718 7.93745 12.8496 7.21098 12.9979C7.2048 13.0011 6.38769 13.1309 6.1144 13.9853H5.58271C5.30004 13.9853 5.07024 13.7555 5.07024 13.473V9.63239C5.07024 9.34995 5.30004 9.11992 5.58271 9.11992H9.42335C9.70579 9.11992 9.93559 9.34995 9.93559 9.63239V10.1641C9.31921 10.3605 8.88731 10.9489 8.9205 11.6262C8.92301 11.6321 8.92919 12.6204 9.93559 12.9413V13.473ZM20.0163 10.9466C20.3339 10.9466 20.5937 11.205 20.5937 11.5241C20.5937 11.8436 20.3335 12.1016 20.0163 12.1016C19.6979 12.1016 19.4388 11.8425 19.4388 11.5241C19.4388 11.2057 19.6979 10.9466 20.0163 10.9466V10.9466ZM25.3211 13.4444C25.3211 13.7269 25.0913 13.9569 24.8088 13.9569H20.9682C20.6855 13.9569 20.4557 13.7269 20.4557 13.4444V12.9127C21.0838 12.7127 21.5047 12.1158 21.4708 11.4495V11.4493C21.4404 10.845 21.0348 10.32 20.4557 10.1355V9.60378C20.4557 9.32134 20.6855 9.09154 20.9682 9.09154H24.8088C25.0913 9.09154 25.3211 9.32134 25.3211 9.60378V13.4444Z"/>
</svg>
