<svg viewBox="0 0 30 30" xmlns="http://www.w3.org/2000/svg">
<path d="M27.5806 7.74194H24.1935V0H2.90323V7.74194H2.41935C1.0854 7.74194 0 8.82734 0 10.1613V24.6774C0 26.0114 1.0854 27.0968 2.41935 27.0968H8.70968V29.0323H6.77419V30H23.2258V29.0323H21.2903V27.0968H27.5806C28.9146 27.0968 30 26.0114 30 24.6774V10.1613C30 8.82734 28.9146 7.74194 27.5806 7.74194ZM23.2258 11.6129H24.1935V14.5161H23.2258V11.6129ZM22.2581 12.5806H13.5484V11.6129H22.2581V12.5806ZM12.5806 14.3018L9.81634 13.2653C9.73318 13.2339 9.67742 13.1536 9.67742 13.0645C9.67742 12.9754 9.73318 12.8951 9.81682 12.8637L12.5806 11.8272V14.3018ZM13.5484 13.5484H22.2581V14.5161H13.5484V13.5484ZM25.1613 11.6129H25.6452C26.4454 11.6129 27.0968 12.2643 27.0968 13.0645C27.0968 13.8647 26.4454 14.5161 25.6452 14.5161H25.1613V11.6129ZM12.9764 10.6452L9.47707 11.9574C9.01848 12.1291 8.70968 12.5743 8.70968 13.0645C8.70968 13.5548 9.01848 13.9999 9.47659 14.1717L12.9764 15.4839H23.2258V20.3226H3.87097V4.83871H23.2258V10.6452H12.9764ZM23.2258 0.967742V3.87097H3.87097V0.967742H23.2258ZM2.41935 8.70968H2.90323V21.2903H24.1935V15.4839H25.6452C26.9791 15.4839 28.0645 14.3985 28.0645 13.0645C28.0645 11.7306 26.9791 10.6452 25.6452 10.6452H24.1935V8.70968H27.5806C28.3809 8.70968 29.0323 9.36106 29.0323 10.1613V23.2258H0.967742V10.1613C0.967742 9.36106 1.61912 8.70968 2.41935 8.70968ZM20.3226 29.0323H9.67742V27.0968H20.3226V29.0323ZM27.5806 26.129H2.41935C1.61912 26.129 0.967742 25.4776 0.967742 24.6774V24.1935H29.0323V24.6774C29.0323 25.4776 28.3809 26.129 27.5806 26.129Z"/>
<path d="M4.83871 1.93555H5.80646V2.90329H4.83871V1.93555Z"/>
<path d="M6.7742 1.93555H7.74194V2.90329H6.7742V1.93555Z"/>
<path d="M8.70969 1.93555H9.67743V2.90329H8.70969V1.93555Z"/>
<path d="M4.83871 9.67761H10.6452V5.80664H4.83871V9.67761ZM5.80646 6.77438H9.67742V8.70987H5.80646V6.77438Z"/>
<path d="M12.0968 5.80664V9.67761H17.9032V5.80664H12.0968ZM16.9355 8.70987H13.0645V6.77438H16.9355V8.70987Z"/>
<path d="M4.83871 10.645H8.22581V11.6128H4.83871V10.645Z"/>
<path d="M4.83871 12.5806H7.74194V13.5483H4.83871V12.5806Z"/>
<path d="M4.83871 14.5161H8.22581V15.4839H4.83871V14.5161Z"/>
<path d="M4.83871 16.4517H22.2581V17.4194H4.83871V16.4517Z"/>
<path d="M21.2903 18.3872H22.2581V19.3549H21.2903V18.3872Z"/>
<path d="M4.83871 18.3872H20.3226V19.3549H4.83871V18.3872Z"/>
</svg>
