<svg viewBox="0 0 30 30" xmlns="http://www.w3.org/2000/svg">
<path d="M10.7812 14.0625H6.09375C5.96943 14.0625 5.8502 14.0131 5.76229 13.9252C5.67439 13.8373 5.625 13.7181 5.625 13.5938V9.84375C5.625 9.71943 5.67439 9.6002 5.76229 9.51229C5.8502 9.42439 5.96943 9.375 6.09375 9.375H10.7812C10.9056 9.375 11.0248 9.42439 11.1127 9.51229C11.2006 9.6002 11.25 9.71943 11.25 9.84375V13.5938C11.25 13.7181 11.2006 13.8373 11.1127 13.9252C11.0248 14.0131 10.9056 14.0625 10.7812 14.0625ZM6.5625 13.125H10.3125V10.3125H6.5625V13.125Z"/>
<path d="M17.3438 17.8125H12.6562C12.5319 17.8125 12.4127 17.7631 12.3248 17.6752C12.2369 17.5873 12.1875 17.4681 12.1875 17.3438V12.6562C12.1875 12.5319 12.2369 12.4127 12.3248 12.3248C12.4127 12.2369 12.5319 12.1875 12.6562 12.1875H17.3438C17.4681 12.1875 17.5873 12.2369 17.6752 12.3248C17.7631 12.4127 17.8125 12.5319 17.8125 12.6562V17.3438C17.8125 17.4681 17.7631 17.5873 17.6752 17.6752C17.5873 17.7631 17.4681 17.8125 17.3438 17.8125ZM13.125 16.875H16.875V13.125H13.125V16.875Z"/>
<path d="M7.5 16.875H11.25V17.8125H7.5V16.875Z"/>
<path d="M7.5 18.75H11.25V19.6875H7.5V18.75Z"/>
<path d="M7.5 20.625H11.25V21.5625H7.5V20.625Z"/>
<path d="M14.0625 18.75H17.8125V19.6875H14.0625V18.75Z"/>
<path d="M14.0625 20.625H17.8125V21.5625H14.0625V20.625Z"/>
<path d="M18.75 18.75H24.375V19.6875H18.75V18.75Z"/>
<path d="M18.75 20.625H24.375V21.5625H18.75V20.625Z"/>
<path d="M12.1875 18.75H13.125V19.6875H12.1875V18.75Z"/>
<path d="M12.1875 20.625H13.125V21.5625H12.1875V20.625Z"/>
<path d="M19.6875 9.37509C19.5632 9.37507 19.444 9.32566 19.3561 9.23775L17.9498 7.8315C17.862 7.7436 17.8126 7.62439 17.8126 7.5001C17.8126 7.3758 17.862 7.25659 17.9498 7.16869L19.3561 5.76244C19.4445 5.67706 19.5629 5.62981 19.6858 5.63088C19.8087 5.63195 19.9263 5.68124 20.0132 5.76815C20.1001 5.85506 20.1494 5.97263 20.1505 6.09554C20.1515 6.21844 20.1043 6.33685 20.0189 6.42525L18.9441 7.5001L20.0189 8.57494C20.0844 8.64049 20.1291 8.72401 20.1471 8.81492C20.1652 8.90584 20.1559 9.00007 20.1205 9.08571C20.085 9.17135 20.0249 9.24456 19.9479 9.29606C19.8708 9.34757 19.7802 9.37507 19.6875 9.37509Z"/>
<path d="M23.4375 9.37509C23.3448 9.37507 23.2542 9.34757 23.1771 9.29606C23.1001 9.24456 23.04 9.17135 23.0045 9.08571C22.969 9.00007 22.9598 8.90584 22.9778 8.81492C22.9959 8.72401 23.0405 8.64049 23.1061 8.57494L24.1809 7.5001L23.1061 6.42525C23.0207 6.33685 22.9735 6.21844 22.9745 6.09554C22.9756 5.97263 23.0249 5.85506 23.1118 5.76815C23.1987 5.68124 23.3163 5.63195 23.4392 5.63088C23.5621 5.62981 23.6805 5.67706 23.7689 5.76244L25.1752 7.16869C25.263 7.25659 25.3124 7.3758 25.3124 7.5001C25.3124 7.62439 25.263 7.7436 25.1752 7.8315L23.7689 9.23775C23.681 9.32566 23.5618 9.37507 23.4375 9.37509Z"/>
<path d="M21.0938 9.84392C21.0552 9.84407 21.0168 9.83934 20.9794 9.82985C20.8588 9.79964 20.7552 9.72276 20.6913 9.61613C20.6273 9.5095 20.6084 9.38185 20.6386 9.26126L21.5761 5.51127C21.607 5.39145 21.6841 5.28873 21.7905 5.22549C21.8968 5.16226 22.0239 5.14365 22.1439 5.17372C22.2639 5.20379 22.3672 5.2801 22.4312 5.38601C22.4952 5.49192 22.5147 5.61883 22.4855 5.73908L21.548 9.48907C21.5226 9.59036 21.4642 9.68028 21.3819 9.74456C21.2996 9.80884 21.1982 9.84381 21.0938 9.84392Z"/>
<path d="M7.5 15H11.25V15.9375H7.5V15Z"/>
<path d="M5.625 15H6.5625V15.9375H5.625V15Z"/>
<path d="M5.625 16.875H6.5625V17.8125H5.625V16.875Z"/>
<path d="M5.625 18.75H6.5625V19.6875H5.625V18.75Z"/>
<path d="M5.625 20.625H6.5625V21.5625H5.625V20.625Z"/>
<path d="M28.5938 24.375H28.125V10.2609C28.5771 9.79973 28.8829 9.21525 29.0041 8.58086C29.1252 7.94647 29.0563 7.29043 28.8059 6.69508C28.5556 6.09973 28.1349 5.59158 27.5968 5.23442C27.0587 4.87726 26.4271 4.68699 25.7812 4.6875C25.6244 4.68742 25.4677 4.69885 25.3125 4.72172V4.6875C25.3125 3.69294 24.9174 2.73911 24.2141 2.03585C23.5109 1.33259 22.5571 0.9375 21.5625 0.9375C20.5679 0.9375 19.6141 1.33259 18.9109 2.03585C18.2076 2.73911 17.8125 3.69294 17.8125 4.6875V4.72172C17.6573 4.69885 17.5006 4.68742 17.3438 4.6875C16.4863 4.6874 15.6632 5.02407 15.0516 5.625H4.21875C3.59738 5.62574 3.00167 5.87291 2.56229 6.31229C2.12291 6.75167 1.87574 7.34738 1.875 7.96875V24.375H1.40625C1.28193 24.375 1.1627 24.4244 1.07479 24.5123C0.986886 24.6002 0.9375 24.7194 0.9375 24.8438V26.7188C0.938244 27.3401 1.18541 27.9358 1.62479 28.3752C2.06417 28.8146 2.65988 29.0618 3.28125 29.0625H26.7188C27.3401 29.0618 27.9358 28.8146 28.3752 28.3752C28.8146 27.9358 29.0618 27.3401 29.0625 26.7188V24.8438C29.0625 24.7194 29.0131 24.6002 28.9252 24.5123C28.8373 24.4244 28.7181 24.375 28.5938 24.375ZM18.1753 5.78016C18.2539 5.81119 18.3394 5.82042 18.4227 5.80687C18.5061 5.79332 18.5843 5.75749 18.649 5.70318C18.7136 5.64886 18.7624 5.57808 18.7902 5.49831C18.818 5.41854 18.8237 5.33274 18.8067 5.25C18.7693 5.06482 18.7503 4.87641 18.75 4.6875C18.75 3.94158 19.0463 3.22621 19.5738 2.69876C20.1012 2.17132 20.8166 1.875 21.5625 1.875C22.3084 1.875 23.0238 2.17132 23.5512 2.69876C24.0787 3.22621 24.375 3.94158 24.375 4.6875C24.3747 4.87641 24.3557 5.06482 24.3183 5.25C24.3016 5.33264 24.3075 5.41825 24.3354 5.4978C24.3634 5.57736 24.4122 5.64791 24.4768 5.70204C24.5415 5.75617 24.6195 5.79186 24.7027 5.80536C24.7859 5.81886 24.8713 5.80967 24.9497 5.77875C25.2149 5.67619 25.4969 5.62405 25.7812 5.625C26.4029 5.625 26.999 5.87193 27.4385 6.31147C27.8781 6.75101 28.125 7.34715 28.125 7.96875C28.125 8.59035 27.8781 9.18649 27.4385 9.62603C26.999 10.0656 26.4029 10.3125 25.7812 10.3125H17.3438C16.7221 10.3125 16.126 10.0656 15.6865 9.62603C15.2469 9.18649 15 8.59035 15 7.96875C15 7.34715 15.2469 6.75101 15.6865 6.31147C16.126 5.87193 16.7221 5.625 17.3438 5.625C17.6282 5.62449 17.9102 5.67712 18.1753 5.78016V5.78016ZM14.1 8.4375C14.2126 9.21778 14.6024 9.93143 15.1981 10.4479C15.7937 10.9643 16.5554 11.2491 17.3438 11.25H25.3125V22.5H4.6875V8.4375H14.1ZM2.8125 7.96875C2.8125 7.59579 2.96066 7.2381 3.22438 6.97438C3.4881 6.71066 3.84579 6.5625 4.21875 6.5625H14.3836C14.2423 6.85889 14.1467 7.17497 14.1 7.5H4.21875C4.09443 7.5 3.9752 7.54939 3.88729 7.63729C3.79939 7.7252 3.75 7.84443 3.75 7.96875V22.9688C3.75 23.0931 3.79939 23.2123 3.88729 23.3002C3.9752 23.3881 4.09443 23.4375 4.21875 23.4375H25.7812C25.9056 23.4375 26.0248 23.3881 26.1127 23.3002C26.2006 23.2123 26.25 23.0931 26.25 22.9688V11.2125C26.575 11.1658 26.8911 11.0702 27.1875 10.9289V24.375H2.8125V7.96875ZM17.3438 25.3125V25.7812C17.3438 25.9056 17.2944 26.0248 17.2065 26.1127C17.1185 26.2006 16.9993 26.25 16.875 26.25H13.125C13.0007 26.25 12.8815 26.2006 12.7935 26.1127C12.7056 26.0248 12.6562 25.9056 12.6562 25.7812V25.3125H17.3438ZM28.125 26.7188C28.125 27.0917 27.9768 27.4494 27.7131 27.7131C27.4494 27.9768 27.0917 28.125 26.7188 28.125H3.28125C2.90829 28.125 2.5506 27.9768 2.28688 27.7131C2.02316 27.4494 1.875 27.0917 1.875 26.7188V25.3125H11.7188V25.7812C11.7188 26.1542 11.8669 26.5119 12.1306 26.7756C12.3944 27.0393 12.752 27.1875 13.125 27.1875H16.875C17.248 27.1875 17.6056 27.0393 17.8694 26.7756C18.1331 26.5119 18.2812 26.1542 18.2812 25.7812V25.3125H28.125V26.7188Z"/>
<path d="M23.9062 17.8125H19.2188C19.0944 17.8125 18.9752 17.7631 18.8873 17.6752C18.7994 17.5873 18.75 17.4681 18.75 17.3438V12.6562C18.75 12.5319 18.7994 12.4127 18.8873 12.3248C18.9752 12.2369 19.0944 12.1875 19.2188 12.1875H23.9062C24.0306 12.1875 24.1498 12.2369 24.2377 12.3248C24.3256 12.4127 24.375 12.5319 24.375 12.6562V17.3438C24.375 17.4681 24.3256 17.5873 24.2377 17.6752C24.1498 17.7631 24.0306 17.8125 23.9062 17.8125ZM19.6875 16.875H23.4375V13.125H19.6875V16.875Z"/>
</svg>
