<svg width="30" height="30" viewBox="0 0 30 30" fill="none" xmlns="http://www.w3.org/2000/svg">
<path d="M28.4999 8.00011H18V2.50008C17.9984 1.11992 16.88 0.00160218 15.5001 0H2.50008C1.11992 0.00160218 0.00160218 1.11992 0 2.50008V27.4999C0.00160218 28.8801 1.11992 29.9984 2.50008 30H28.4999C29.3285 30 30 29.3285 30 28.4999V9.49997C30 8.67165 29.3285 8.00011 28.4999 8.00011ZM15.5001 8.00011V7.5C15.5001 6.94771 15.0522 6.50002 14.4999 6.50002H3.50006C2.94777 6.50002 2.50008 6.94771 2.50008 7.5V12.4999C2.50008 13.0522 2.94777 13.4999 3.50006 13.4999H11.0001V15.5001H10.0001C9.44778 15.5001 9.00009 15.9478 9.00009 16.5001V21.5C9.00009 22.0523 9.44778 22.5 10.0001 22.5H11.0001V25.0001H0.999985V4.99992H17V8.00011H15.5001ZM12.4999 8.00011C11.7659 8.0024 11.1413 8.53569 11.0241 9.26056L9.31458 10.8575L7.60391 9.14658C7.5103 9.05251 7.38281 8.99963 7.25006 8.99963C7.11708 8.99963 6.98982 9.05251 6.89598 9.14658L3.54561 12.4999H3.50006V7.5H14.4999V8.00011H12.4999ZM8.92708 11.8845C8.93051 11.8879 8.93097 11.8929 8.9344 11.8966C8.93806 11.9 8.94539 11.903 8.94997 11.9076L9.543 12.4999H4.95941L7.25006 10.2074L8.92708 11.8845ZM10.022 11.5649L11.0001 10.6501V12.4999H10.957L10.022 11.5649ZM11.0001 21.5H10.0001V16.5001H11.0001V21.5ZM2.50008 0.999985H15.5001C16.3284 0.999985 17 1.67152 17 2.50008V3.99994H0.999985V2.50008C0.999985 1.67152 1.67152 0.999985 2.50008 0.999985V0.999985ZM0.999985 27.4999V26.0001H11.0001V27H6.50002C6.22375 27 5.99991 27.2239 5.99991 27.4999C5.99991 27.7762 6.22375 28 6.50002 28H11.0001V28.4999C11.0017 28.6707 11.0328 28.8398 11.0921 29H2.50008C2.10228 29 1.72073 28.8419 1.43944 28.5606C1.15814 28.2793 0.999985 27.8977 0.999985 27.4999V27.4999ZM29 28.4999C29 28.7762 28.7762 29 28.4999 29H12.4999C12.2239 29 12 28.7762 12 28.4999V9.49997C12 9.22394 12.2239 9.00009 12.4999 9.00009H28.4999C28.7762 9.00009 29 9.22394 29 9.49997V28.4999Z"/>
<path d="M14 15.5002C14.276 15.5002 14.4999 15.2761 14.4999 15.0001V12.5H17C17.2762 12.5 17.5001 12.2761 17.5001 12.0001C17.5001 11.7238 17.2762 11.5 17 11.5H14.4999C13.9476 11.5 13.4999 11.9477 13.4999 12.5V15.0001C13.4999 15.2761 13.7238 15.5002 14 15.5002Z"/>
<path d="M18.584 11.7225L16.9226 14.2155L16.3536 13.6465C16.1572 13.4572 15.8454 13.4597 15.6525 13.6527C15.4598 13.8456 15.457 14.1574 15.6465 14.3535L16.6465 15.3535C16.7401 15.4473 16.8674 15.5 16.9999 15.5002H17.05C17.1988 15.4853 17.3334 15.4045 17.4165 15.28L19.4164 12.2801C19.5156 12.1315 19.5279 11.9413 19.4487 11.7811C19.3695 11.6209 19.2111 11.5151 19.0328 11.5035C18.8545 11.492 18.6836 11.5765 18.5845 11.725L18.584 11.7225Z"/>
<path d="M14 20.9999C14.276 20.9999 14.4999 20.7761 14.4999 20.5001V18H17C17.2762 18 17.5001 17.7761 17.5001 17.5001C17.5001 17.2238 17.2762 17 17 17H14.4999C13.9476 17 13.4999 17.4477 13.4999 18V20.5001C13.4999 20.7761 13.7238 20.9999 14 20.9999V20.9999Z"/>
<path d="M18.584 17.2226L16.9226 19.7156L16.3536 19.1466C16.1572 18.9571 15.8454 18.9598 15.6525 19.1527C15.4598 19.3457 15.457 19.6574 15.6465 19.8536L16.6465 20.8536C16.7401 20.9474 16.8674 21.0001 16.9999 21.0001C17.0164 21.0001 17.0324 21.0001 17.05 20.9975C17.1988 20.9829 17.3334 20.9021 17.4165 20.7776L19.4164 17.7776C19.5156 17.6291 19.5279 17.4389 19.4487 17.2787C19.3695 17.1184 19.2111 17.0127 19.0328 17.001C18.8545 16.9896 18.6836 17.074 18.5845 17.2226H18.584Z"/>
<path d="M17.5001 23.0001C17.5001 22.7238 17.2762 22.5 17 22.5H14.4999C13.9476 22.5 13.4999 22.9477 13.4999 23.5V26.0001C13.4999 26.2761 13.7238 26.4999 14 26.4999C14.276 26.4999 14.4999 26.2761 14.4999 26.0001V23.5H17C17.2762 23.5 17.5001 23.2761 17.5001 23.0001V23.0001Z"/>
<path d="M18.584 22.7226L16.9226 25.2156L16.3536 24.6466C16.1572 24.4571 15.8454 24.4598 15.6525 24.6527C15.4598 24.8455 15.457 25.1574 15.6465 25.3536L16.6465 26.3536C16.7401 26.4474 16.8674 26.5001 16.9999 26.5001C17.0164 26.5001 17.0324 26.5001 17.05 26.4975C17.1988 26.4829 17.3334 26.4021 17.4165 26.2776L19.4164 23.2776C19.5156 23.1291 19.5279 22.9389 19.4487 22.7787C19.3695 22.6184 19.2111 22.5127 19.0328 22.501C18.8545 22.4896 18.6836 22.574 18.5845 22.7226H18.584Z"/>
<path d="M21.5 13H25.0001C25.2761 13 25.5 12.7761 25.5 12.4999C25.5 12.2238 25.2761 12 25.0001 12H21.5C21.2238 12 20.9999 12.2238 20.9999 12.4999C20.9999 12.7761 21.2238 13 21.5 13V13Z"/>
<path d="M27.4999 12H27C26.7238 12 26.4999 12.2238 26.4999 12.4999C26.4999 12.7761 26.7238 13 27 13H27.4999C27.7762 13 28 12.7761 28 12.4999C28 12.2238 27.7762 12 27.4999 12V12Z"/>
<path d="M23.5 14.4999C23.5 14.7761 23.7238 15 24.0001 15H26.0001C26.2761 15 26.5 14.7761 26.5 14.4999C26.5 14.2238 26.2761 14 26.0001 14H24.0001C23.7238 14 23.5 14.2238 23.5 14.4999V14.4999Z"/>
<path d="M21.5 15H21.9999C22.2762 15 22.5 14.7761 22.5 14.4999C22.5 14.2238 22.2762 14 21.9999 14H21.5C21.2238 14 20.9999 14.2238 20.9999 14.4999C20.9999 14.7761 21.2238 15 21.5 15V15Z"/>
<path d="M21.5 18.5H25.0001C25.2761 18.5 25.5 18.2761 25.5 17.9999C25.5 17.7238 25.2761 17.5 25.0001 17.5H21.5C21.2238 17.5 20.9999 17.7238 20.9999 17.9999C20.9999 18.2761 21.2238 18.5 21.5 18.5V18.5Z"/>
<path d="M27.4999 17.5H27C26.7238 17.5 26.4999 17.7238 26.4999 17.9999C26.4999 18.2761 26.7238 18.5 27 18.5H27.4999C27.7762 18.5 28 18.2761 28 17.9999C28 17.7238 27.7762 17.5 27.4999 17.5V17.5Z"/>
<path d="M26.0001 19.5H24.0001C23.7238 19.5 23.5 19.7238 23.5 19.9999C23.5 20.2761 23.7238 20.5 24.0001 20.5H26.0001C26.2761 20.5 26.5 20.2761 26.5 19.9999C26.5 19.7238 26.2761 19.5 26.0001 19.5V19.5Z"/>
<path d="M21.5 20.5H21.9999C22.2762 20.5 22.5 20.2761 22.5 19.9999C22.5 19.7238 22.2762 19.5 21.9999 19.5H21.5C21.2238 19.5 20.9999 19.7238 20.9999 19.9999C20.9999 20.2761 21.2238 20.5 21.5 20.5V20.5Z"/>
<path d="M21.5 24H25.0001C25.2761 24 25.5 23.7761 25.5 23.4999C25.5 23.2238 25.2761 23 25.0001 23H21.5C21.2238 23 20.9999 23.2238 20.9999 23.4999C20.9999 23.7761 21.2238 24 21.5 24V24Z"/>
<path d="M27.4999 23H27C26.7238 23 26.4999 23.2238 26.4999 23.4999C26.4999 23.7761 26.7238 24 27 24H27.4999C27.7762 24 28 23.7761 28 23.4999C28 23.2238 27.7762 23 27.4999 23V23Z"/>
<path d="M26.0001 25H24.0001C23.7238 25 23.5 25.2238 23.5 25.4999C23.5 25.7761 23.7238 26 24.0001 26H26.0001C26.2761 26 26.5 25.7761 26.5 25.4999C26.5 25.2238 26.2761 25 26.0001 25V25Z"/>
<path d="M21.9999 25H21.5C21.2238 25 20.9999 25.2238 20.9999 25.4999C20.9999 25.7761 21.2238 26 21.5 26H21.9999C22.2762 26 22.5 25.7761 22.5 25.4999C22.5 25.2238 22.2762 25 21.9999 25V25Z"/>
<path d="M6.99988 2.99998H7.49998C7.77602 2.99998 8.00009 2.77614 8.00009 2.50011C8.00009 2.22385 7.77602 2 7.49998 2H6.99988C6.72385 2 6.5 2.22385 6.5 2.50011C6.5 2.77614 6.72385 2.99998 6.99988 2.99998Z"/>
<path d="M9.49997 2.99998H11.0001C11.2761 2.99998 11.4999 2.77614 11.4999 2.50011C11.4999 2.22385 11.2761 2 11.0001 2H9.49997C9.22394 2 9.00009 2.22385 9.00009 2.50011C9.00009 2.77614 9.22394 2.99998 9.49997 2.99998Z"/>
<path d="M4.99994 18.5H7.50002C7.77605 18.5 8.00012 18.2761 8.00012 17.9999C8.00012 17.7238 7.77605 17.5 7.50002 17.5H4.99994C4.72391 17.5 4.50006 17.7238 4.50006 17.9999C4.50006 18.2761 4.72391 18.5 4.99994 18.5Z"/>
<path d="M3.27506 17.5848C3.24943 17.5651 3.22059 17.5497 3.18992 17.5397C3.15994 17.5246 3.12766 17.5145 3.09448 17.5097C3.03222 17.4948 2.96722 17.4948 2.90496 17.5097C2.87177 17.5145 2.83973 17.5246 2.80998 17.5397C2.77793 17.5509 2.74749 17.566 2.71957 17.5848L2.64495 17.6447C2.5534 17.7404 2.50167 17.8674 2.50007 17.9997C2.49824 18.0654 2.51197 18.1304 2.5399 18.1897C2.5653 18.2504 2.60078 18.3062 2.64495 18.3547L2.71957 18.4147C2.74749 18.4337 2.77793 18.4488 2.80998 18.4598C2.83973 18.4749 2.87177 18.4852 2.90496 18.4898C2.93632 18.4955 2.96813 18.4989 2.99995 18.4998C3.03176 18.4989 3.06335 18.4955 3.09448 18.4898C3.12766 18.4852 3.15994 18.4749 3.18992 18.4598C3.22059 18.4497 3.24943 18.4346 3.27506 18.4147C3.30459 18.3948 3.33 18.3749 3.35494 18.3547C3.39912 18.3062 3.43459 18.2504 3.46 18.1897C3.48564 18.1297 3.49914 18.0652 3.50005 17.9997C3.49799 17.8674 3.44627 17.7406 3.35494 17.6447C3.33 17.6248 3.30459 17.6047 3.27506 17.5848Z"/>
<path d="M4.99994 16.5H7.50002C7.77605 16.5 8.00012 16.2761 8.00012 15.9999C8.00012 15.7238 7.77605 15.5 7.50002 15.5H4.99994C4.72391 15.5 4.50006 15.7238 4.50006 15.9999C4.50006 16.2761 4.72391 16.5 4.99994 16.5V16.5Z"/>
<path d="M2.53987 16.1916C2.56528 16.2521 2.60076 16.3079 2.64493 16.3567L2.71955 16.4162C2.74747 16.4352 2.77791 16.4503 2.80995 16.4615C2.83994 16.4764 2.87198 16.4864 2.90494 16.4915C2.9363 16.4967 2.96811 16.4995 2.99993 16.5002C3.03174 16.499 3.06333 16.4956 3.09445 16.4901C3.12764 16.4848 3.15991 16.4748 3.1899 16.4601C3.22057 16.4498 3.24941 16.4345 3.27504 16.4146C3.30457 16.3951 3.32997 16.375 3.35492 16.3551C3.3991 16.3065 3.43457 16.2507 3.45998 16.19C3.48561 16.1301 3.49912 16.0655 3.50003 16.0001C3.4982 15.8678 3.44625 15.741 3.35492 15.6451C3.32997 15.6252 3.30503 15.605 3.27504 15.5851C3.24941 15.5652 3.22057 15.5499 3.1899 15.5396C3.16014 15.5242 3.12787 15.5144 3.09445 15.51C3.0322 15.4947 2.9672 15.4947 2.90494 15.51C2.87175 15.5144 2.83971 15.5242 2.80995 15.5396C2.77791 15.5508 2.74747 15.5661 2.71955 15.5851L2.64493 15.6451C2.55338 15.7407 2.50165 15.8675 2.50005 16.0001C2.49799 16.0662 2.51172 16.1317 2.53987 16.1916Z"/>
<path d="M4.99994 20.5H7.50002C7.77605 20.5 8.00012 20.2761 8.00012 19.9999C8.00012 19.7238 7.77605 19.5 7.50002 19.5H4.99994C4.72391 19.5 4.50006 19.7238 4.50006 19.9999C4.50006 20.2761 4.72391 20.5 4.99994 20.5Z"/>
<path d="M3.27506 19.5867C3.24943 19.5668 3.22059 19.5515 3.18992 19.5412C3.16017 19.5259 3.12789 19.516 3.09448 19.5117C3.03222 19.4961 2.96722 19.4961 2.90496 19.5117C2.87177 19.516 2.83973 19.5259 2.80998 19.5412C2.77793 19.5524 2.74749 19.5677 2.71957 19.5867L2.64495 19.6467C2.55386 19.7419 2.5019 19.8683 2.50007 20.0001C2.49824 20.0658 2.51197 20.1308 2.5399 20.1901C2.5653 20.2507 2.60078 20.3066 2.64495 20.3551L2.71957 20.4146C2.74749 20.4336 2.77793 20.4489 2.80998 20.4602C2.83996 20.475 2.872 20.4851 2.90496 20.4901C2.93632 20.4959 2.96813 20.4991 2.99995 20.5002C3.03176 20.4991 3.06335 20.4959 3.09448 20.4901C3.12766 20.4851 3.15994 20.475 3.18992 20.4602C3.22059 20.4499 3.24943 20.4345 3.27506 20.4146C3.30459 20.3952 3.33 20.3752 3.35494 20.3551C3.39912 20.3066 3.43459 20.2507 3.46 20.1901C3.48564 20.1301 3.49914 20.0656 3.50005 20.0001C3.49822 19.8678 3.44627 19.741 3.35494 19.6451C3.33 19.6266 3.30459 19.6067 3.27506 19.5867Z"/>
<path d="M4.99994 22.5H7.50002C7.77605 22.5 8.00012 22.2761 8.00012 21.9999C8.00012 21.7238 7.77605 21.5 7.50002 21.5H4.99994C4.72391 21.5 4.50006 21.7238 4.50006 21.9999C4.50006 22.2761 4.72391 22.5 4.99994 22.5Z"/>
<path d="M3.27506 21.5847C3.24943 21.565 3.22059 21.5499 3.18992 21.5398C3.15994 21.5245 3.12766 21.5144 3.09448 21.5099C3.03222 21.4948 2.96722 21.4948 2.90496 21.5099C2.87177 21.5144 2.83973 21.5245 2.80998 21.5398C2.77793 21.5508 2.74749 21.5659 2.71957 21.5847L2.64495 21.6447C2.5534 21.7406 2.50167 21.8674 2.50007 21.9997C2.49824 22.0654 2.51197 22.1304 2.5399 22.1899C2.5653 22.2503 2.60078 22.3061 2.64495 22.3547L2.71957 22.4149C2.74749 22.4336 2.77793 22.4487 2.80998 22.4597C2.83973 22.4751 2.87177 22.4851 2.90496 22.4897C2.93632 22.4957 2.96813 22.4989 2.99995 22.4998C3.03176 22.4989 3.06335 22.4957 3.09448 22.4897C3.12766 22.4851 3.15994 22.4751 3.18992 22.4597C3.22059 22.4497 3.24943 22.4345 3.27506 22.4149C3.30459 22.3947 3.33 22.3748 3.35494 22.3547C3.39912 22.3061 3.43459 22.2503 3.46 22.1899C3.48564 22.1297 3.49914 22.0651 3.50005 21.9997C3.49799 21.8674 3.44627 21.7406 3.35494 21.6447C3.33 21.6248 3.30459 21.6049 3.27506 21.5847Z"/>
</svg>
