<svg viewBox="0 0 30 30" xmlns="http://www.w3.org/2000/svg">
<path d="M27.4526 9.01176C26.6528 8.15323 25.5821 7.85408 24.6094 7.74033C24.67 7.56065 24.7032 7.36839 24.7032 7.16812C24.7032 6.19171 23.9211 5.39703 22.9598 5.39703C22.7628 5.39703 22.3954 5.44922 21.4446 5.84358V4.05418C21.4446 3.61542 21.0878 3.25882 20.6493 3.25882H19.1544C19.5486 2.30804 19.6008 1.94069 19.6008 1.74339C19.6008 0.782089 18.8063 0 17.8297 0C16.853 0 16.0586 0.782089 16.0586 1.74339C16.0586 1.94069 16.1108 2.30804 16.5049 3.25882H15.0101C14.5715 3.25882 14.2147 3.61542 14.2147 4.05418V5.63622C14.2147 5.89165 14.3385 6.13335 14.5457 6.28304C14.7519 6.43204 15.0188 6.47324 15.2596 6.39336C15.5942 6.28258 15.7221 6.27388 15.7535 6.27388C16.2312 6.27388 16.62 6.67511 16.62 7.16835C16.62 7.66136 16.2312 8.06236 15.7535 8.06236C15.7221 8.06236 15.594 8.05389 15.2596 7.94289C15.0188 7.86324 14.7519 7.90443 14.5457 8.05344C14.3385 8.2029 14.2147 8.44482 14.2147 8.70026V10.2823C14.2147 10.7208 14.5715 11.0777 15.0101 11.0777H16.5049C16.1108 12.0284 16.0586 12.3958 16.0586 12.5931C16.0586 13.5544 16.853 14.3365 17.8297 14.3365C18.8063 14.3365 19.6008 13.5542 19.6008 12.5931C19.6008 12.3956 19.5486 12.0284 19.1544 11.0777H20.6493C21.0878 11.0777 21.4446 10.7208 21.4446 10.2823V8.49289C22.3954 8.88725 22.7625 8.93921 22.9598 8.93921C23.3608 8.93921 23.7303 8.80074 24.0251 8.56865C26.1383 8.69522 27.9994 9.30473 27.9994 14.2369C27.9994 17.1858 27.3271 20.6005 26.245 23.1482C26.1505 23.3709 26.2544 23.6284 26.4773 23.7229C26.5331 23.7467 26.5913 23.7579 26.6485 23.7579C26.819 23.7579 26.9813 23.6579 27.0522 23.4908C28.1772 20.842 28.8762 17.2959 28.8762 14.2369C28.876 11.7487 28.4104 10.0394 27.4526 9.01176V9.01176ZM21.1862 7.42493C21.0505 7.36359 20.8933 7.37572 20.7683 7.45628C20.6431 7.53708 20.5678 7.67578 20.5678 7.82455V10.2008H18.4861C18.3373 10.2008 18.1986 10.2763 18.1178 10.4013C18.037 10.5263 18.0254 10.6837 18.0865 10.8192C18.6933 12.1648 18.7239 12.5329 18.7239 12.5928C18.7239 13.0708 18.3227 13.4596 17.8297 13.4596C17.3367 13.4596 16.9354 13.0708 16.9354 12.5928C16.9354 12.5329 16.9661 12.1651 17.5729 10.8192C17.634 10.6837 17.6223 10.5263 17.5415 10.4013C17.4607 10.2761 17.322 10.2008 17.1732 10.2008H15.0916V8.80989C15.3742 8.89778 15.5864 8.93921 15.7535 8.93921C16.7148 8.93921 17.4969 8.14476 17.4969 7.16812C17.4969 6.19171 16.7148 5.39703 15.7535 5.39703C15.5866 5.39703 15.3745 5.43846 15.0916 5.52658V4.13567H17.1732C17.322 4.13567 17.4607 4.06013 17.5415 3.93517C17.6223 3.8102 17.634 3.65273 17.5729 3.517C16.9661 2.1714 16.9354 1.80359 16.9354 1.74339C16.9354 1.26572 17.3367 0.876846 17.8297 0.876846C18.3227 0.876846 18.7239 1.26572 18.7239 1.74339C18.7239 1.80359 18.6933 2.1714 18.0865 3.517C18.0254 3.65273 18.037 3.8102 18.1178 3.93517C18.1986 4.06013 18.3373 4.13567 18.4861 4.13567H20.5678V6.51169C20.5678 6.66069 20.6431 6.79916 20.7683 6.87996C20.8933 6.96075 21.0505 6.97266 21.1862 6.91132C22.5321 6.30478 22.8999 6.27388 22.9598 6.27388C23.4377 6.27388 23.8266 6.67511 23.8266 7.16835C23.8266 7.66136 23.4377 8.06236 22.9598 8.06236C22.8999 8.06236 22.5318 8.03169 21.1862 7.42493V7.42493Z"/>
<path d="M25.9378 24.7838C25.7334 24.6538 25.4626 24.714 25.3326 24.9184C24.7934 25.7661 23.9438 26.7769 22.9591 26.7769C21.1745 26.7769 19.235 23.3459 18.3472 18.6188C18.3083 18.4117 18.1272 18.2613 17.9164 18.2613H12.1314C11.9206 18.2613 11.7396 18.4117 11.7007 18.6188C11.545 19.4472 11.3519 20.2533 11.1257 21.0232L9.14818 20.1977C8.84926 20.0729 8.50822 20.1404 8.27934 20.3693C8.05046 20.5984 7.98317 20.9392 8.10791 21.2382L9.57092 24.7426C8.98498 25.7112 8.1086 26.7769 7.08847 26.7769C5.8992 26.7769 4.636 25.2935 3.62297 22.7074C2.63718 20.1908 2.04872 17.0242 2.04872 14.2371C2.04872 11.7643 2.52159 10.1713 3.49411 9.36674C4.32541 8.67941 5.48584 8.5414 7.08847 8.5414C9.46655 8.5414 11.3326 8.78218 11.9273 11.8128C11.9675 12.0183 12.1479 12.1667 12.3576 12.1667H14.3367C14.5791 12.1667 14.7752 11.9705 14.7752 11.7283C14.7752 11.4862 14.5791 11.29 14.3367 11.29H12.7105C12.3557 9.82153 11.6705 8.83437 10.6222 8.27795C9.6627 7.76892 8.51578 7.66455 7.0887 7.66455C3.97064 7.66455 1.17188 8.16718 1.17188 14.2371C1.17188 17.1279 1.78299 20.414 2.80678 23.0271C3.97522 26.0106 5.49591 27.6537 7.08847 27.6537C8.10104 27.6537 9.09027 26.989 9.97948 25.7213L11.5615 29.5113C11.6828 29.8018 11.9536 29.989 12.2681 29.9998C12.2777 30 12.2873 30.0002 12.2969 30.0002C12.5997 30.0002 12.87 29.834 13.0064 29.5612L13.7769 28.0238L15.133 29.3799C15.2861 29.5328 15.4871 29.6095 15.6882 29.6095C15.8892 29.6093 16.0904 29.5328 16.2435 29.3797L17.2897 28.3335C17.4383 28.1852 17.52 27.9879 17.52 27.7782C17.52 27.5683 17.4383 27.3713 17.29 27.2227L15.9338 25.8668L17.4712 25.0964C17.7525 24.9557 17.9205 24.6725 17.9098 24.358C17.899 24.0436 17.7118 23.7728 17.4213 23.6515L11.9398 21.3631C12.1529 20.6483 12.3383 19.9031 12.4926 19.1382H17.5552C17.9981 21.3327 18.6903 23.3448 19.5181 24.8364C20.541 26.6794 21.731 27.6537 22.9591 27.6537C24.0534 27.6537 25.1301 26.8705 26.0724 25.3889C26.2026 25.1845 26.1422 24.9135 25.9378 24.7838V24.7838ZM16.6054 27.778L15.6882 28.6951L14.1909 27.1978L14.4969 26.5869L15.1078 26.2807L16.6054 27.778ZM14.9911 25.3585C14.9908 25.3587 14.9904 25.3589 14.9899 25.3589L13.9739 25.8682C13.8892 25.9106 13.8206 25.9792 13.7782 26.0639L12.3022 29.0096L8.99322 21.0832L16.9196 24.3922L14.9911 25.3585Z"/>
<path d="M22.9591 11.8774C22.132 11.8774 21.459 12.5504 21.459 13.3778C21.459 14.2049 22.132 14.8779 22.9591 14.8779C23.7865 14.8779 24.4595 14.2049 24.4595 13.3778C24.4595 12.5504 23.7865 11.8774 22.9591 11.8774ZM22.9591 14.001C22.6154 14.001 22.3359 13.7213 22.3359 13.3778C22.3359 13.034 22.6156 12.7543 22.9591 12.7543C23.3029 12.7543 23.5826 13.034 23.5826 13.3778C23.5826 13.7215 23.3029 14.001 22.9591 14.001V14.001Z"/>
<path d="M22.9591 16.7539C22.132 16.7539 21.459 17.427 21.459 18.2542C21.459 19.0814 22.132 19.7543 22.9591 19.7543C23.7865 19.7543 24.4595 19.0814 24.4595 18.2542C24.4595 17.427 23.7865 16.7539 22.9591 16.7539ZM22.9591 18.8777C22.6154 18.8777 22.3359 18.5978 22.3359 18.2542C22.3359 17.9104 22.6156 17.6308 22.9591 17.6308C23.3029 17.6308 23.5826 17.9104 23.5826 18.2542C23.5826 18.5978 23.3029 18.8777 22.9591 18.8777V18.8777Z"/>
<path d="M26.8977 15.8157C26.8977 14.9883 26.2248 14.3154 25.3974 14.3154C24.5702 14.3154 23.8973 14.9883 23.8973 15.8157C23.8973 16.6429 24.5702 17.3158 25.3974 17.3158C26.2248 17.3158 26.8977 16.6429 26.8977 15.8157V15.8157ZM24.7739 15.8157C24.7739 15.472 25.0538 15.1923 25.3974 15.1923C25.7411 15.1923 26.0208 15.472 26.0208 15.8157C26.0208 16.1593 25.7411 16.439 25.3974 16.439C25.0538 16.4392 24.7739 16.1593 24.7739 15.8157V15.8157Z"/>
<path d="M19.0208 15.8157C19.0208 16.6429 19.6937 17.3158 20.5208 17.3158C21.348 17.3158 22.0212 16.6429 22.0212 15.8157C22.0212 14.9883 21.348 14.3154 20.5208 14.3154C19.6937 14.3154 19.0208 14.9883 19.0208 15.8157ZM21.1443 15.8157C21.1443 16.1593 20.8646 16.439 20.5208 16.439C20.1773 16.439 19.8976 16.1593 19.8976 15.8157C19.8976 15.472 20.1773 15.1923 20.5208 15.1923C20.8646 15.1923 21.1443 15.472 21.1443 15.8157V15.8157Z"/>
<path d="M9.8479 16.2452C9.62497 16.3395 9.5206 16.5968 9.6149 16.8197C9.7092 17.0428 9.96669 17.147 10.1894 17.0529C10.6918 16.8403 11.0163 16.3507 11.0163 15.8051C11.0163 15.0584 10.4087 14.451 9.66205 14.451H8.44302V13.2317C8.44302 12.4849 7.83534 11.8774 7.08873 11.8774C6.34189 11.8774 5.73444 12.4849 5.73444 13.2317V14.451H4.51518C3.76834 14.451 3.16089 15.0584 3.16089 15.8051C3.16089 16.5519 3.76857 17.1593 4.51518 17.1593H5.73444V18.3786C5.73444 19.1254 6.34189 19.7329 7.08873 19.7329C7.83534 19.7329 8.44302 19.1254 8.44302 18.3786V16.721C8.44302 16.4789 8.24664 16.2827 8.00449 16.2827C7.76233 16.2827 7.56618 16.4789 7.56618 16.721V18.3786C7.56618 18.6418 7.35194 18.856 7.08873 18.856C6.82552 18.856 6.61128 18.6418 6.61128 18.3786V16.721C6.61128 16.4789 6.4149 16.2827 6.17274 16.2827H4.51518C4.25197 16.2827 4.03773 16.0685 4.03773 15.8051C4.03773 15.5418 4.25197 15.3278 4.51518 15.3278H6.17274C6.4149 15.3278 6.61128 15.1315 6.61128 14.8893V13.2317C6.61128 12.9685 6.82552 12.7543 7.08873 12.7543C7.35194 12.7543 7.56618 12.9685 7.56618 13.2317V14.8893C7.56618 15.1315 7.76233 15.3278 8.00449 15.3278H9.66205C9.92526 15.3278 10.1395 15.5418 10.1395 15.8051C10.1395 15.9975 10.0251 16.1703 9.8479 16.2452V16.2452Z"/>
</svg>
