<svg width="30" height="30" viewBox="0 0 30 30" fill="none" xmlns="http://www.w3.org/2000/svg">
<path d="M28.6633 2.87109H13.5013C13.2587 2.87109 13.0618 3.06793 13.0618 3.31055C13.0618 3.55339 13.2587 3.75 13.5013 3.75H28.6636C28.9158 3.75 29.1211 3.95531 29.1211 4.20776V17.5873C29.1211 17.8299 29.3179 18.0267 29.5605 18.0267C29.8034 18.0267 30 17.8299 30 17.5873V4.20776C30 3.47076 29.4006 2.87109 28.6633 2.87109Z"/>
<path d="M29.5605 19.0615C29.3176 19.0615 29.121 19.2581 29.121 19.5009V20.3698H0.878904V4.20776C0.878904 3.9553 1.08421 3.75 1.33644 3.75H7.80852C8.05113 3.75 8.24797 3.55339 8.24797 3.31055C8.24797 3.06793 8.05113 2.87109 7.80852 2.87109H1.33644C0.59944 2.87109 0 3.47076 0 4.20776V23.0783C0 23.6505 0.465545 24.1161 1.03775 24.1161H11.6876V26.2456H9.87303C9.63041 26.2456 9.43357 26.4424 9.43357 26.6851C9.43357 26.9279 9.63041 27.1245 9.87303 27.1245H20.1269C20.3698 27.1245 20.5664 26.9279 20.5664 26.6851C20.5664 26.4424 20.3698 26.2456 20.1269 26.2456H18.3123V24.1161H28.9622C29.5344 24.1161 29.9999 23.6505 29.9999 23.0783V19.5009C29.9999 19.2581 29.8033 19.0615 29.5605 19.0615V19.0615ZM17.4334 26.2456H12.5665V24.1161H17.4334V26.2456ZM28.9622 23.2372H1.03775C0.950087 23.2372 0.878904 23.166 0.878904 23.0783V21.2487H29.121V23.0783C29.121 23.166 29.0499 23.2372 28.9622 23.2372Z"/>
<path d="M9.72217 3.75H11.5876C11.8302 3.75 12.027 3.55339 12.027 3.31055C12.027 3.06793 11.8302 2.87109 11.5876 2.87109H9.72217C9.47955 2.87109 9.28271 3.06793 9.28271 3.31055C9.28271 3.55339 9.47955 3.75 9.72217 3.75Z"/>
<path d="M2.71722 6.19043C2.47461 6.19043 2.27777 6.38704 2.27777 6.62988V18.2926C2.27777 18.5352 2.47461 18.732 2.71722 18.732H6.13947C6.38208 18.732 6.57892 18.5352 6.57892 18.2926V6.62988C6.57892 6.38704 6.38208 6.19043 6.13947 6.19043H2.71722ZM5.70001 7.06934V7.59988H3.15668V7.06934H5.70001ZM3.15668 17.8531V8.47879H5.70001V17.8531H3.15668Z"/>
<path d="M24.2392 10.9599H27.6614C27.9043 10.9599 28.1009 10.7633 28.1009 10.5204V6.62988C28.1009 6.38704 27.9043 6.19043 27.6614 6.19043H24.2392C23.9966 6.19043 23.7997 6.38704 23.7997 6.62988V10.5204C23.7997 10.7633 23.9966 10.9599 24.2392 10.9599ZM24.6786 10.081V8.47856H27.222V10.081H24.6786ZM27.222 7.06934V7.59989H24.6786V7.06934H27.222Z"/>
<path d="M23.7997 16.7504C23.7997 16.9932 23.9966 17.1899 24.2392 17.1899H27.6614C27.9043 17.1899 28.1009 16.9932 28.1009 16.7504V12.8599C28.1009 12.617 27.9043 12.4204 27.6614 12.4204H24.2392C23.9966 12.4204 23.7997 12.617 23.7997 12.8599V16.7504ZM24.6786 16.3109V14.7085H27.222V16.3109H24.6786ZM27.222 13.2993V13.8296H24.6786V13.2993H27.222Z"/>
<path d="M8.59058 14.6263C8.59058 15.3329 9.16576 15.9078 9.87231 15.9078C10.1941 15.9078 10.4882 15.7886 10.7135 15.592L13.7338 17.2653C13.7237 17.3301 13.7182 17.3967 13.7182 17.4642C13.7182 18.171 14.2932 18.7459 15 18.7459C15.7065 18.7459 16.2815 18.171 16.2815 17.4642C16.2815 17.3967 16.2762 17.3301 16.2661 17.2653L19.2862 15.592C19.5114 15.7883 19.8058 15.9078 20.1274 15.9078C20.8342 15.9078 21.4091 15.3329 21.4091 14.6261C21.4091 14.0738 21.0578 13.6018 20.5668 13.4222V10.7001C21.0578 10.5202 21.4091 10.0484 21.4091 9.49592C21.4091 8.78914 20.8342 8.21419 20.1274 8.21419C19.8065 8.21419 19.513 8.33298 19.2881 8.52844L16.2659 6.85417C16.2762 6.7894 16.2815 6.72302 16.2815 6.65527C16.2815 5.94849 15.7065 5.37354 14.9997 5.37354C14.2932 5.37354 13.7182 5.94849 13.7182 6.65527C13.7182 6.72279 13.7235 6.7894 13.7338 6.85417L10.7116 8.52844C10.4866 8.33298 10.1932 8.21419 9.87231 8.21419C9.16553 8.21419 8.59058 8.78914 8.59058 9.49592C8.59058 10.0482 8.94191 10.5202 9.43286 10.6998V13.4222C8.94191 13.6018 8.59058 14.0738 8.59058 14.6263V14.6263ZM15 7.93701C15.3208 7.93701 15.6143 7.81822 15.8393 7.62253L18.8614 9.29702C18.8513 9.3618 18.8459 9.42817 18.8459 9.49592C18.8459 9.56367 18.8513 9.63028 18.8614 9.69505L15.8393 11.3693C15.6143 11.1739 15.3208 11.0551 15 11.0551C14.6791 11.0551 14.3856 11.1739 14.1606 11.3693L11.1385 9.69505C11.1488 9.63028 11.1541 9.56367 11.1541 9.49592C11.1541 9.42817 11.1486 9.3618 11.1385 9.29702L14.1606 7.62276C14.3856 7.81822 14.6791 7.93701 15 7.93701V7.93701ZM18.8459 14.6263C18.8459 14.6931 18.8511 14.7588 18.861 14.8229L15.8393 16.497C15.7225 16.3953 15.5875 16.3143 15.4394 16.2603V13.5407C15.9304 13.361 16.2817 12.8891 16.2817 12.3366C16.2817 12.2688 16.2762 12.2024 16.2661 12.1377L19.2883 10.4634C19.405 10.5648 19.5401 10.6458 19.6881 10.7001V13.4222C19.1972 13.6018 18.8459 14.0738 18.8459 14.6263ZM15.4028 12.3366C15.4028 12.5588 15.222 12.7394 15 12.7394C14.7779 12.7394 14.5971 12.5588 14.5971 12.3366C14.5971 12.1146 14.7779 11.934 15 11.934C15.222 11.934 15.4028 12.1146 15.4028 12.3366ZM10.7116 10.4634L13.7338 12.1377C13.7237 12.2027 13.7182 12.2691 13.7182 12.3368C13.7182 12.8891 14.0695 13.361 14.5605 13.5407V16.2603C14.4124 16.3145 14.2774 16.3956 14.1606 16.497L11.1389 14.8229C11.1488 14.7588 11.1541 14.6931 11.1541 14.6263C11.1541 14.0738 10.8027 13.6018 10.3118 13.4222V10.7001C10.4599 10.6458 10.5949 10.5648 10.7116 10.4634ZM9.87231 15.0289C9.6503 15.0289 9.46948 14.8483 9.46948 14.6263C9.46948 14.4041 9.6503 14.2235 9.87231 14.2235C10.0946 14.2235 10.2751 14.4041 10.2751 14.6263C10.2751 14.8483 10.0946 15.0289 9.87231 15.0289ZM15 17.867C14.7779 17.867 14.5971 17.6862 14.5971 17.4642C14.5971 17.2422 14.7779 17.0614 15 17.0614C15.222 17.0614 15.4028 17.2422 15.4028 17.4642C15.4028 17.6862 15.222 17.867 15 17.867ZM20.1276 15.0289C19.9056 15.0289 19.7248 14.8483 19.7248 14.6263C19.7248 14.4041 19.9056 14.2235 20.1276 14.2235C20.3496 14.2235 20.5304 14.4041 20.5304 14.6263C20.5304 14.8483 20.3496 15.0289 20.1276 15.0289ZM20.1276 9.09309C20.3496 9.09309 20.5304 9.27391 20.5304 9.49592C20.5304 9.71794 20.3496 9.89875 20.1276 9.89875C19.9056 9.89875 19.7248 9.71794 19.7248 9.49592C19.7248 9.27391 19.9056 9.09309 20.1276 9.09309ZM15 6.25244C15.222 6.25244 15.4028 6.43326 15.4028 6.65527C15.4028 6.87729 15.222 7.0581 15 7.0581C14.7779 7.0581 14.5971 6.87729 14.5971 6.65527C14.5971 6.43326 14.7779 6.25244 15 6.25244V6.25244ZM9.87231 9.09309C10.0946 9.09309 10.2751 9.27391 10.2751 9.49592C10.2751 9.71794 10.0946 9.89875 9.87231 9.89875C9.6503 9.89875 9.46948 9.71794 9.46948 9.49592C9.46948 9.27391 9.6503 9.09309 9.87231 9.09309Z"/>
</svg>
