<svg width="30" height="30" viewBox="0 0 30 30" fill="none" xmlns="http://www.w3.org/2000/svg">
<path d="M18.3015 21.3295C18.2762 20.9102 18.0924 20.5094 17.784 20.2011L15.5584 17.9751C15.9179 17.8613 16.2424 17.6655 16.5066 17.4013L16.5632 17.3447C17.544 16.3639 17.4653 14.6895 16.3878 13.6119C15.8751 13.0993 15.212 12.794 14.5205 12.7522C13.8019 12.7088 13.1398 12.9519 12.6551 13.4366L12.5985 13.4932C12.3342 13.7575 12.1383 14.0821 12.0246 14.4417L9.79875 12.2158C9.14286 11.5599 8.11524 11.5203 7.50786 12.1275L5.49054 14.1449C5.24369 14.3917 5.14103 14.7506 5.21591 15.1046C5.29736 15.4897 5.56589 15.8045 5.93427 15.9468C6.16683 16.0367 6.37771 16.1752 6.56093 16.3584L6.62486 16.4223C6.93482 16.7323 7.11903 17.1262 7.14347 17.5317C7.16638 17.9105 7.04444 18.2536 6.80023 18.4978C6.55601 18.742 6.21277 18.8642 5.83413 18.841C5.42867 18.8166 5.03462 18.6323 4.72472 18.3224L4.6608 18.2584C4.47757 18.0752 4.33912 17.8643 4.24923 17.6318C4.10691 17.2634 3.79209 16.9949 3.40701 16.9134C3.05293 16.8386 2.6941 16.9412 2.44719 17.1881L0.432152 19.2032C-0.175054 19.8105 -0.135503 20.8381 0.520452 21.494L2.74631 23.72C2.38666 23.8338 2.06211 24.0296 1.79779 24.2938L1.74113 24.3505C0.760393 25.3313 0.839085 27.0057 1.91656 28.0833C2.48861 28.6552 3.22865 28.9458 3.94402 28.9457C4.57625 28.9457 5.18919 28.7187 5.64927 28.2586L5.70593 28.202C5.97025 27.9376 6.16601 27.6132 6.2798 27.2534L8.50565 29.4793C8.81409 29.7877 9.21487 29.9715 9.63411 29.9969C9.66622 29.9988 9.69827 29.9998 9.7302 29.9998C10.1348 29.9998 10.5192 29.845 10.7966 29.5676L12.7154 27.6488C12.8644 28.0113 13.0838 28.3387 13.3679 28.623L13.4319 28.6869C14.5093 29.7643 16.1838 29.843 17.1646 28.8623C18.1454 27.8815 18.0667 26.207 16.9892 25.1295L16.9253 25.0656C16.6411 24.7814 16.3137 24.5621 15.9512 24.413L17.8723 22.492C18.1716 22.1925 18.3281 21.7689 18.3015 21.3295ZM17.0437 21.6633L15.0264 23.6806C14.7796 23.9275 14.6769 24.2863 14.7517 24.6404C14.8331 25.0254 15.1017 25.3403 15.4701 25.4826C15.7027 25.5725 15.9135 25.711 16.0967 25.8943L16.1607 25.9582C16.7812 26.5787 16.8599 27.5097 16.336 28.0336C15.8122 28.5575 14.881 28.4788 14.2606 27.8583L14.1967 27.7943C14.0135 27.6111 13.8749 27.4002 13.7851 27.1677C13.6427 26.7993 13.3278 26.5308 12.9428 26.4494C12.5886 26.3745 12.2299 26.4772 11.9831 26.724L9.96803 28.7391C9.88694 28.8202 9.78018 28.832 9.70483 28.8272C9.57364 28.8193 9.43864 28.755 9.3344 28.6508L8.44149 27.7579L10.386 25.8134C10.6148 25.5846 10.6148 25.2136 10.386 24.9847C10.1572 24.7558 9.78616 24.7559 9.55729 24.9847L7.6128 26.9292L7.00607 26.3225C6.78417 26.1006 6.49191 25.9805 6.19736 25.9805C6.09552 25.9805 5.99333 25.9949 5.89372 26.0244C5.53349 26.1311 5.27164 26.4146 5.1933 26.7829C5.14408 27.0142 5.03773 27.2128 4.87718 27.3733L4.82052 27.4299C4.2967 27.9538 3.36553 27.8751 2.74508 27.2546C2.12451 26.634 2.04582 25.703 2.56965 25.1791L2.62631 25.1225C2.78685 24.9619 2.98549 24.8556 3.21676 24.8063C3.58508 24.728 3.86861 24.4661 3.97531 24.1058C4.09004 23.7183 3.97578 23.2922 3.67724 22.9936L1.34908 20.6653C1.24485 20.5611 1.18057 20.4261 1.1726 20.2949C1.16803 20.2196 1.17969 20.1128 1.26072 20.0317L3.17949 18.1129C3.32855 18.4754 3.54793 18.8028 3.83205 19.087L3.89597 19.1509C4.97351 20.2284 6.64794 20.3071 7.6288 19.3263C8.60954 18.3455 8.53091 16.6711 7.45337 15.5936L7.38944 15.5296C7.10526 15.2454 6.77784 15.0261 6.41532 14.8771L8.33637 12.956C8.48427 12.8082 8.77442 12.8487 8.97001 13.0443L11.2983 15.3725C11.5968 15.6711 12.023 15.7853 12.4105 15.6706C12.7707 15.564 13.0326 15.2804 13.111 14.9121C13.1602 14.6808 13.2665 14.4822 13.4271 14.3217L13.4838 14.265C13.728 14.0208 14.071 13.899 14.4499 13.9218C14.8553 13.9463 15.2494 14.1305 15.5593 14.4404C16.1798 15.0611 16.2585 15.9921 15.7346 16.5159L15.678 16.5725C15.5175 16.7331 15.3189 16.8394 15.0877 16.8886C14.7193 16.967 14.4357 17.2288 14.329 17.5891C14.2143 17.9766 14.3285 18.4028 14.6271 18.7014L16.9554 21.0297C17.0596 21.1339 17.1239 21.2689 17.1318 21.4001C17.1364 21.4754 17.1248 21.5822 17.0437 21.6633Z"/>
<path d="M11.889 23.4817C11.7801 23.3728 11.6289 23.3101 11.4748 23.3101C11.3207 23.3101 11.1695 23.3728 11.0605 23.4817C10.9515 23.5907 10.8889 23.7419 10.8889 23.896C10.8889 24.0501 10.9515 24.2013 11.0605 24.3103C11.1695 24.4192 11.3201 24.4819 11.4748 24.4819C11.6289 24.4819 11.7801 24.4192 11.889 24.3103C11.998 24.2013 12.0607 24.0501 12.0607 23.896C12.0607 23.7419 11.998 23.5907 11.889 23.4817Z"/>
<path d="M24.3318 7.44121C24.2228 7.33223 24.0716 7.26953 23.9175 7.26953C23.7634 7.26953 23.6123 7.33223 23.5033 7.44121C23.3943 7.55019 23.3316 7.70137 23.3316 7.85547C23.3316 8.00957 23.3943 8.16074 23.5033 8.26972C23.6123 8.37871 23.7634 8.4414 23.9175 8.4414C24.0716 8.4414 24.2228 8.37871 24.3318 8.26972C24.4408 8.16074 24.5035 8.00957 24.5035 7.85547C24.5035 7.70137 24.4408 7.55019 24.3318 7.44121Z"/>
<path d="M28.7197 13.4666C28.4013 13.1483 28.0162 12.9048 27.6022 12.7595L29.5665 10.7952C29.8658 10.4959 30.0223 10.0721 29.9957 9.63267C29.9704 9.21343 29.7866 8.81265 29.4782 8.50421L27.2963 6.32195C27.6039 6.20447 27.8836 6.02424 28.1143 5.79344L28.171 5.73678C29.1517 4.75598 29.0731 3.08155 27.9956 2.00401C26.9182 0.92659 25.2437 0.847899 24.2628 1.82864L24.2061 1.8853C23.9753 2.11616 23.7951 2.39594 23.6776 2.70368L21.4929 0.519072C20.837 -0.136884 19.8093 -0.176493 19.202 0.430771L17.2377 2.39506C17.0924 1.98104 16.8489 1.59591 16.5306 1.27757L16.4666 1.21364C15.3892 0.136162 13.7147 0.0575295 12.7339 1.03827C11.7531 2.01907 11.8318 3.69356 12.9092 4.77092L12.9732 4.83496C13.2915 5.15324 13.6766 5.39676 14.0907 5.54213L12.1264 7.50642C11.5191 8.11369 11.5587 9.1413 12.2148 9.79743L14.5452 12.126C14.8438 12.4246 15.2702 12.5387 15.6575 12.4241C16.0177 12.3174 16.2795 12.0338 16.3579 11.6655C16.4071 11.4343 16.5135 11.2357 16.6741 11.0751L16.7307 11.0185C16.9749 10.7742 17.3186 10.6522 17.6968 10.6752C18.1023 10.6997 18.4963 10.8839 18.8062 11.1939C19.1162 11.5039 19.3003 11.8978 19.3248 12.3033C19.3477 12.6821 19.2258 13.0252 18.9816 13.2695L18.925 13.3261C18.7644 13.4866 18.5658 13.593 18.3346 13.6422C17.9663 13.7205 17.6827 13.9824 17.576 14.3426C17.4613 14.73 17.5755 15.1561 17.8739 15.4547L20.2 17.7826C20.5446 18.1272 20.9918 18.3017 21.4267 18.3017C21.8197 18.3017 22.2027 18.1592 22.491 17.8709L24.4553 15.9066C24.6006 16.3206 24.8441 16.7058 25.1624 17.0241L25.2264 17.0881C26.3039 18.1655 27.9783 18.2442 28.9591 17.2634C29.9399 16.2826 29.8613 14.6081 28.7838 13.5307L28.7197 13.4666ZM28.1303 16.4346C27.6065 16.9585 26.6753 16.8798 26.0548 16.2593L25.9909 16.1953C25.7868 15.9912 25.6338 15.7445 25.5485 15.4818C25.4246 15.1003 25.1052 14.805 24.7148 14.7113C24.3504 14.6238 23.9804 14.7239 23.7252 14.9791L21.6622 17.0421C21.581 17.1232 21.4742 17.1349 21.399 17.1303C21.2678 17.1223 21.1328 17.058 21.0287 16.9539L18.8049 14.7284C19.1646 14.6146 19.4891 14.4188 19.7534 14.1545L19.81 14.0979C20.2947 13.6132 20.5378 12.9506 20.4944 12.2325C20.4526 11.5409 20.1474 10.8777 19.6347 10.3651C19.1221 9.85257 18.4589 9.54718 17.7674 9.5054C17.0489 9.46228 16.3867 9.70509 15.902 10.1897L15.8454 10.2464C15.5811 10.5108 15.3852 10.8353 15.2715 11.1949L13.0434 8.96857C12.9392 8.86439 12.8749 8.72933 12.8669 8.59814C12.8624 8.52285 12.874 8.41603 12.9551 8.33494L15.0181 6.27191C15.2734 6.01668 15.3735 5.64672 15.286 5.28227C15.1922 4.89191 14.8969 4.57246 14.5154 4.4486C14.2528 4.36328 14.0061 4.2103 13.802 4.00627L13.738 3.94223C13.1174 3.32166 13.0387 2.39067 13.5626 1.86678C14.0864 1.3429 15.0176 1.42153 15.6381 2.04215L15.702 2.10608C15.9061 2.31016 16.0591 2.5569 16.1444 2.81957C16.2684 3.20114 16.5878 3.49639 16.9782 3.59008C17.3425 3.67756 17.7125 3.57743 17.9677 3.32225L20.0307 1.25923C20.1786 1.11151 20.4687 1.15188 20.6643 1.34753L22.9409 3.62418C23.2295 3.91276 23.6438 4.03047 24.0219 3.9311C24.3728 3.83899 24.6404 3.57573 24.7377 3.22692C24.7932 3.02817 24.8932 2.85555 25.0348 2.71387L25.0915 2.65721C25.6153 2.13333 26.5464 2.21196 27.1669 2.83258C27.7875 3.45315 27.8662 4.38414 27.3423 4.90803L27.2857 4.96469C27.144 5.10643 26.9714 5.20639 26.7727 5.26182C26.4239 5.35914 26.1606 5.62674 26.0685 5.97765C25.9692 6.35582 26.0868 6.77002 26.3754 7.05865L28.6495 9.33273C28.7537 9.43691 28.818 9.57196 28.826 9.70316C28.8305 9.77845 28.8189 9.88526 28.7378 9.96636L27.7975 10.9067L25.8557 8.96482C25.6268 8.73601 25.2559 8.73601 25.027 8.96482C24.7982 9.19362 24.7982 9.56464 25.027 9.79345L26.9688 11.7353L26.6747 12.0294C26.4195 12.2847 26.3194 12.6546 26.4069 13.019C26.5006 13.4094 26.7959 13.7288 27.1774 13.8528C27.44 13.9381 27.6867 14.0911 27.8909 14.2952L27.9548 14.3591C28.5755 14.9797 28.6542 15.9109 28.1303 16.4346Z"/>
</svg>
