<svg viewBox="0 0 30 30" xmlns="http://www.w3.org/2000/svg">
<path d="M23.4375 22.5C23.4375 23.017 23.017 23.4375 22.5 23.4375C21.983 23.4375 21.5625 23.017 21.5625 22.5V22.0312H19.6875V21.0342C20.4956 20.8261 21.0938 20.0906 21.0938 19.2188C21.0938 18.3469 20.4956 17.6114 19.6875 17.4033V15.4688H14.0625C13.0284 15.4688 12.1875 16.3097 12.1875 17.3438V22.0312V22.9688V27.6562C12.1875 28.6903 13.0284 29.5312 14.0625 29.5312H18.75H19.6875H24.375C25.4091 29.5312 26.25 28.6903 26.25 27.6562V22.0312H23.4375V22.5ZM13.125 17.3438C13.125 16.8267 13.5455 16.4062 14.0625 16.4062H18.75V18.2812H19.2188C19.7358 18.2812 20.1562 18.7017 20.1562 19.2188C20.1562 19.7358 19.7358 20.1562 19.2188 20.1562H18.75V22.0312H17.753C17.5448 21.2231 16.8094 20.625 15.9375 20.625C15.0656 20.625 14.3302 21.2231 14.122 22.0312H13.125V17.3438ZM14.0625 28.5938C13.5455 28.5938 13.125 28.1733 13.125 27.6562V22.9688H15V22.5C15 21.983 15.4205 21.5625 15.9375 21.5625C16.4545 21.5625 16.875 21.983 16.875 22.5V22.9688H18.75V23.9658C17.9419 24.1739 17.3438 24.9094 17.3438 25.7812C17.3438 26.6531 17.9419 27.3886 18.75 27.5967V28.5938H14.0625ZM24.3155 22.9688H25.3125V27.6562C25.3125 28.1733 24.892 28.5938 24.375 28.5938H19.6875V26.7188H19.2188C18.7017 26.7188 18.2812 26.2983 18.2812 25.7812C18.2812 25.2642 18.7017 24.8438 19.2188 24.8438H19.6875V22.9688H20.6845C20.8927 23.7769 21.6281 24.375 22.5 24.375C23.3719 24.375 24.1073 23.7769 24.3155 22.9688Z"/>
<path d="M20.1562 7.5C20.1562 6.98297 20.5767 6.5625 21.0938 6.5625C21.6108 6.5625 22.0312 6.98297 22.0312 7.5V7.96875H24.8438V6.09375C25.8778 6.09375 26.7188 5.25281 26.7188 4.21875C26.7188 3.18469 25.8778 2.34375 24.8438 2.34375V0.46875H19.2188C18.1847 0.46875 17.3438 1.30969 17.3438 2.34375V7.96875H20.1562V7.5ZM19.2783 7.03125H18.2812V2.34375C18.2812 1.82672 18.7017 1.40625 19.2188 1.40625H23.9062V3.28125H24.8438C25.3608 3.28125 25.7812 3.70172 25.7812 4.21875C25.7812 4.73578 25.3608 5.15625 24.8438 5.15625H23.9062V7.03125H22.9092C22.7011 6.22313 21.9656 5.625 21.0938 5.625C20.2219 5.625 19.4864 6.22313 19.2783 7.03125Z"/>
<path d="M24.8438 10.7812C24.0684 10.7812 23.4375 11.4122 23.4375 12.1875V12.6562H24.375V12.1875C24.375 11.9288 24.585 11.7188 24.8438 11.7188C25.1025 11.7188 25.3125 11.9288 25.3125 12.1875V12.2681C25.3125 12.3914 25.2628 12.5123 25.1752 12.5995L24.787 12.9877C24.5213 13.253 24.375 13.6064 24.375 13.9819V14.5312H25.3125V13.9819C25.3125 13.8586 25.3622 13.7377 25.4498 13.6505L25.838 13.2623C26.1037 12.997 26.25 12.6436 26.25 12.2681V12.1875C26.25 11.4122 25.6191 10.7812 24.8438 10.7812Z"/>
<path d="M24.375 15.4688H25.3125V16.4062H24.375V15.4688Z"/>
<path d="M24.8438 8.90625C22.2591 8.90625 20.1562 11.0091 20.1562 13.5938C20.1562 15.4608 21.2733 17.1455 22.9688 17.8856V20.2195L25.3303 18.2517C27.6984 18.0056 29.5312 15.9891 29.5312 13.5938C29.5312 11.0091 27.4284 8.90625 24.8438 8.90625ZM25.11 17.3302L24.9591 17.3405L23.9062 18.218V17.2359L23.5941 17.1258C22.0987 16.5956 21.0938 15.1767 21.0938 13.5938C21.0938 11.5261 22.7761 9.84375 24.8438 9.84375C26.9114 9.84375 28.5938 11.5261 28.5938 13.5938C28.5938 15.5513 27.0633 17.1923 25.11 17.3302Z"/>
<path d="M20.625 27.1875H21.5625V28.125H20.625V27.1875Z"/>
<path d="M22.5 27.1875H23.4375V28.125H22.5V27.1875Z"/>
<path d="M13.5938 23.9062H14.5312V24.8438H13.5938V23.9062Z"/>
<path d="M13.5938 25.7812H14.5312V26.7188H13.5938V25.7812Z"/>
<path d="M19.2188 2.34375H20.1562V3.28125H19.2188V2.34375Z"/>
<path d="M21.0938 2.34375H22.0312V3.28125H21.0938V2.34375Z"/>
<path d="M14.0625 17.3438H15V18.2812H14.0625V17.3438Z"/>
<path d="M15.9375 17.3438H16.875V18.2812H15.9375V17.3438Z"/>
<path d="M15.4688 7.67812V2.10938C15.4688 1.20469 14.7328 0.46875 13.8281 0.46875C12.9234 0.46875 12.1875 1.20469 12.1875 2.10938V6.60328L9.49313 6.84938C10.0017 6.27141 10.3125 5.51578 10.3125 4.6875C10.3125 2.87859 8.84016 1.40625 7.03125 1.40625C5.22234 1.40625 3.75 2.87859 3.75 4.6875C3.75 5.64234 4.16297 6.50109 4.81641 7.10109C2.35687 7.49109 0.46875 9.62016 0.46875 12.1875V13.5938C0.46875 14.8861 1.52016 15.9375 2.8125 15.9375H3.28125V17.8125V18.2812V27.4219C3.28125 28.5848 4.22766 29.5312 5.39062 29.5312C6.05672 29.5312 6.64453 29.2148 7.03125 28.7316C7.41797 29.2148 8.00578 29.5312 8.67188 29.5312C9.83484 29.5312 10.7812 28.5848 10.7812 27.4219V10.268L13.3584 10.0102C14.5612 9.88969 15.4688 8.88703 15.4688 7.67812V7.67812ZM4.6875 4.6875C4.6875 3.39516 5.73891 2.34375 7.03125 2.34375C8.32359 2.34375 9.375 3.39516 9.375 4.6875C9.375 5.97984 8.32359 7.03125 7.03125 7.03125C5.73891 7.03125 4.6875 5.97984 4.6875 4.6875ZM6.32812 15.9375C7.23281 15.9375 7.96875 15.2016 7.96875 14.2969C7.96875 13.3922 7.23281 12.6562 6.32812 12.6562H4.21875V11.7188H7.96875V14.2969V17.3438H4.21875V15.9375H6.32812ZM5.39062 28.5938C4.74422 28.5938 4.21875 28.0683 4.21875 27.4219V18.2812H6.5625V27.4219C6.5625 28.0683 6.03703 28.5938 5.39062 28.5938ZM9.84375 9.41953V27.4219C9.84375 28.0683 9.31828 28.5938 8.67188 28.5938C8.02547 28.5938 7.5 28.0683 7.5 27.4219V18.2812H8.90625V10.7812H3.28125V12.6562H2.34375V13.5938H6.32812C6.71578 13.5938 7.03125 13.9092 7.03125 14.2969C7.03125 14.6845 6.71578 15 6.32812 15H2.8125C2.03719 15 1.40625 14.3691 1.40625 13.5938V12.1875C1.40625 9.86109 3.29859 7.96875 5.625 7.96875L7.005 7.96734C7.01391 7.96734 7.02234 7.96875 7.03125 7.96875C7.04016 7.96875 7.04906 7.96734 7.05844 7.96734L7.54266 7.96688L13.125 7.45922V2.10938C13.125 1.72172 13.4405 1.40625 13.8281 1.40625C14.2158 1.40625 14.5312 1.72172 14.5312 2.10938V7.67812C14.5312 8.40375 13.987 9.00516 13.2652 9.07734L9.84375 9.41953Z"/>
</svg>
