<svg viewBox="0 0 30 30" xmlns="http://www.w3.org/2000/svg">
<path d="M29.8283 5.50289L24.4963 0.171621C24.3864 0.0617578 24.2374 0 24.082 0H6.67969C5.71043 0 4.92188 0.788555 4.92188 1.75781V2.87484C2.04346 4.00395 0 6.80947 0 10.0835C0 10.407 0.262383 10.6694 0.585938 10.6694H7.73971C8.06326 10.6694 8.32564 10.407 8.32564 10.0835V2.92969C8.32564 2.60613 8.06326 2.34375 7.73971 2.34375C7.17498 2.34375 6.62443 2.4051 6.09375 2.52053V1.75781C6.09375 1.43473 6.3566 1.17188 6.67969 1.17188H23.4961V4.74609C23.4961 5.71535 24.2846 6.50391 25.2539 6.50391H28.8281V28.2422C28.8281 28.5653 28.5653 28.8281 28.2422 28.8281H6.67969C6.3566 28.8281 6.09375 28.5653 6.09375 28.2422V23.2226C6.09375 22.8991 5.83137 22.6367 5.50781 22.6367C5.18426 22.6367 4.92188 22.8991 4.92188 23.2226V28.2422C4.92188 29.2114 5.71043 30 6.67969 30H28.2422C29.2114 30 30 29.2114 30 28.2422V5.91721C30 5.76182 29.9382 5.61275 29.8283 5.50289ZM7.15371 3.54158V9.49752H1.19777C1.47791 6.34236 3.99861 3.82172 7.15371 3.54158ZM25.2539 5.33203C24.9308 5.33203 24.668 5.06918 24.668 4.74609V2.00039L28.0001 5.33203H25.2539Z" fill="#232323"/>
<path d="M5.92201 20.6795C5.81309 20.5704 5.66191 20.5078 5.50781 20.5078C5.35371 20.5078 5.20254 20.5704 5.09355 20.6795C4.98457 20.7885 4.92188 20.9396 4.92188 21.0938C4.92188 21.2479 4.98451 21.399 5.09355 21.5079C5.20254 21.617 5.35371 21.6797 5.50781 21.6797C5.66191 21.6797 5.81309 21.617 5.92201 21.5079C6.03105 21.399 6.09375 21.2479 6.09375 21.0938C6.09375 20.9396 6.03105 20.7885 5.92201 20.6795Z" fill="#232323"/>
<path d="M9.83843 4.44287C9.51488 4.44287 9.2525 4.70525 9.2525 5.02881V11.5966H2.68472C2.36117 11.5966 2.09879 11.859 2.09879 12.1825C2.09879 16.4502 5.57076 19.9222 9.83843 19.9222C14.1061 19.9222 17.5781 16.4502 17.5781 12.1825C17.5781 7.91484 14.1061 4.44287 9.83843 4.44287ZM10.4244 5.6407C11.7961 5.76246 13.0477 6.30797 14.0476 7.1448L10.4244 10.7679V5.6407ZM9.83843 18.7504C6.41439 18.7504 3.59386 16.1166 3.29662 12.7685H9.83843C10.0002 12.7685 10.1465 12.7029 10.2526 12.597C10.2526 12.597 10.2527 12.597 10.2528 12.5968L14.8764 7.97332C15.8309 9.11396 16.4063 10.5823 16.4063 12.1825C16.4063 15.804 13.4599 18.7504 9.83843 18.7504Z" fill="#232323"/>
<path d="M25.6683 18.4927C24.6991 18.4927 23.9105 19.2812 23.9105 20.2505C23.9105 20.4934 23.9601 20.7249 24.0496 20.9356L20.6738 24.3113C20.4418 24.1983 20.1814 24.1347 19.9065 24.1347C19.6381 24.1347 19.3837 24.1954 19.1559 24.3034L16.9142 22.0617C16.9919 21.8635 17.0351 21.6479 17.0351 21.4223C17.0351 20.453 16.2465 19.6645 15.2772 19.6645C14.308 19.6645 13.5194 20.453 13.5194 21.4223C13.5194 21.6849 13.5777 21.9341 13.6814 22.1581L11.5313 24.3082C11.3023 24.1986 11.046 24.1371 10.7757 24.1371C9.80641 24.1371 9.01785 24.9257 9.01785 25.8949C9.01785 26.8642 9.80641 27.6528 10.7757 27.6528C11.7449 27.6528 12.5335 26.8642 12.5335 25.8949C12.5335 25.6232 12.4715 25.3658 12.361 25.1359L14.4991 22.9978C14.7338 23.1143 14.998 23.1801 15.2774 23.1801C15.5929 23.1801 15.889 23.0962 16.1452 22.95L18.3237 25.1285C18.2116 25.3596 18.1487 25.6188 18.1487 25.8925C18.1487 26.8618 18.9372 27.6504 19.9065 27.6504C20.8758 27.6504 21.6643 26.8618 21.6643 25.8925C21.6643 25.6255 21.6042 25.3722 21.4972 25.1454L24.8414 21.8011C25.088 21.9332 25.3696 22.0083 25.6683 22.0083C26.6376 22.0083 27.4261 21.2197 27.4261 20.2505C27.4261 19.2812 26.6376 18.4927 25.6683 18.4927ZM10.7756 26.4809C10.4525 26.4809 10.1897 26.2181 10.1897 25.895C10.1897 25.5719 10.4525 25.3091 10.7756 25.3091C10.9329 25.3091 11.0756 25.3717 11.181 25.4729C11.1833 25.4754 11.1854 25.478 11.1878 25.4805C11.1906 25.4833 11.1936 25.4856 11.1965 25.4883C11.2984 25.5938 11.3615 25.7371 11.3615 25.895C11.3615 26.218 11.0987 26.4809 10.7756 26.4809ZM15.2772 22.0082C14.9542 22.0082 14.6913 21.7454 14.6913 21.4223C14.6913 21.0992 14.9542 20.8364 15.2772 20.8364C15.6003 20.8364 15.8632 21.0992 15.8632 21.4223C15.8632 21.7454 15.6003 22.0082 15.2772 22.0082ZM19.9064 26.4785C19.5833 26.4785 19.3205 26.2156 19.3205 25.8925C19.3205 25.5695 19.5833 25.3066 19.9064 25.3066C20.2295 25.3066 20.4923 25.5695 20.4923 25.8925C20.4923 26.2156 20.2295 26.4785 19.9064 26.4785ZM25.6682 20.8364C25.3451 20.8364 25.0823 20.5735 25.0823 20.2504C25.0823 19.9273 25.3452 19.6645 25.6682 19.6645C25.9913 19.6645 26.2541 19.9273 26.2541 20.2504C26.2541 20.5735 25.9913 20.8364 25.6682 20.8364Z" fill="#232323"/>
<path d="M22.7396 13.7695H19.6471C19.3236 13.7695 19.0612 14.0319 19.0612 14.3555C19.0612 14.679 19.3235 14.9414 19.6471 14.9414H22.7396C23.0632 14.9414 23.3256 14.679 23.3256 14.3555C23.3256 14.0319 23.0632 13.7695 22.7396 13.7695Z" fill="#232323"/>
<path d="M25.8216 13.9412C25.7127 13.8322 25.5615 13.7695 25.4074 13.7695C25.2533 13.7695 25.1021 13.8322 24.9932 13.9412C24.8842 14.0502 24.8215 14.2014 24.8215 14.3555C24.8215 14.5096 24.8841 14.6607 24.9932 14.7697C25.1021 14.8787 25.2527 14.9414 25.4074 14.9414C25.5615 14.9414 25.7127 14.8787 25.8216 14.7697C25.9306 14.6607 25.9933 14.5096 25.9933 14.3555C25.9933 14.2014 25.9307 14.0502 25.8216 13.9412Z" fill="#232323"/>
<path d="M26.8046 8.14453H19.6471C19.3236 8.14453 19.0612 8.40691 19.0612 8.73047C19.0612 9.05402 19.3235 9.31641 19.6471 9.31641H26.8046C27.1281 9.31641 27.3905 9.05402 27.3905 8.73047C27.3905 8.40691 27.1281 8.14453 26.8046 8.14453Z" fill="#232323"/>
<path d="M26.8046 10.957H19.6471C19.3236 10.957 19.0612 11.2194 19.0612 11.543C19.0612 11.8665 19.3235 12.1289 19.6471 12.1289H26.8046C27.1281 12.1289 27.3905 11.8665 27.3905 11.543C27.3905 11.2194 27.1281 10.957 26.8046 10.957Z" fill="#232323"/>
</svg>
