<svg width="40" height="23" viewBox="0 0 40 23" fill="none" xmlns="http://www.w3.org/2000/svg">
<path d="M28.8889 13.3333C30.1162 13.3333 31.1111 12.3384 31.1111 11.1111C31.1111 9.88381 30.1162 8.88889 28.8889 8.88889C27.6616 8.88889 26.6667 9.88381 26.6667 11.1111C26.6667 12.3384 27.6616 13.3333 28.8889 13.3333Z" fill="#232323"/>
<path d="M11.1111 17.7778C7.42963 17.7778 4.44444 14.7926 4.44444 11.1111H0C0 17.2469 4.97531 22.2222 11.1111 22.2222C17.2469 22.2222 22.2222 17.2469 22.2222 11.1111H17.7778C17.7778 14.7926 14.7926 17.7778 11.1111 17.7778Z" fill="#232323"/>
<path d="M28.8889 0C22.7531 0 17.7778 4.97531 17.7778 11.1111H22.2222C22.2222 7.42963 25.2074 4.44445 28.8889 4.44445C32.5704 4.44445 35.5555 7.42963 35.5555 11.1111H40C40 4.97531 35.0247 0 28.8889 0Z" fill="#232323"/>
</svg>
