<?xml version="1.0" standalone="no"?>
<!DOCTYPE svg PUBLIC "-//W3C//DTD SVG 20010904//EN"
 "http://www.w3.org/TR/2001/REC-SVG-20010904/DTD/svg10.dtd">
<svg version="1.0" xmlns="http://www.w3.org/2000/svg"
 width="1000.000000pt" height="1000.000000pt" viewBox="0 0 1000.000000 1000.000000"
 preserveAspectRatio="xMidYMid meet">
<metadata>
Created by potrace 1.11, written by Peter Selinger 2001-2013
</metadata>
<g transform="translate(0.000000,1000.000000) scale(0.100000,-0.100000)"
fill="#000000" stroke="none">
<path d="M5846 6289 c-177 -26 -397 -114 -554 -221 -111 -76 -255 -225 -335
-344 -145 -219 -206 -415 -222 -712 -3 -68 -15 -158 -26 -200 -90 -362 -425
-610 -794 -589 -121 7 -195 25 -300 76 -248 119 -414 355 -441 631 l-7 70
-260 0 -260 0 7 -92 c17 -226 93 -443 224 -643 61 -93 248 -278 347 -343 147
-98 300 -161 475 -199 120 -25 391 -25 510 1 180 39 378 127 515 229 168 124
334 330 415 514 75 171 97 274 119 568 17 223 79 363 226 511 149 151 305 222
511 231 426 21 778 -283 820 -707 l7 -70 260 0 260 0 -7 93 c-45 599 -494
1092 -1085 1191 -101 17 -305 20 -405 5z"/>
<path d="M5923 5231 c-120 -61 -170 -182 -131 -313 15 -50 79 -123 130 -149
123 -63 284 -10 345 112 85 173 -24 363 -215 376 -60 4 -74 1 -129 -26z"/>
</g>
</svg>
