<svg width="20" height="20" viewBox="0 0 20 20" fill="none" xmlns="http://www.w3.org/2000/svg">
<path fill-rule="evenodd" clip-rule="evenodd" d="M1.66669 4.16667H5.83335C7.6743 4.16667 9.16669 5.65906 9.16669 7.50001C9.16669 8.31637 8.87321 9.06419 8.38602 9.64373C9.35324 10.2272 10 11.2881 10 12.5C10 14.341 8.50764 15.8333 6.66669 15.8333H1.66669V10.8333V9.16667V4.16667ZM3.33335 14.1667V10.8333H5.83335H6.66669C7.58716 10.8333 8.33335 11.5795 8.33335 12.5C8.33335 13.4205 7.58716 14.1667 6.66669 14.1667H3.33335ZM11.6667 5.00001V6.66667H17.5V5.00001H11.6667ZM14.6982 14.1667C15.5653 14.1667 16.0981 13.9894 16.3826 13.7225C16.5324 13.5819 16.5949 13.4255 16.5949 13.3333H18.2616C18.2616 14.6893 17.0422 15.8333 14.6982 15.8333C12.3789 15.8333 10.8334 14.3299 10.8334 11.6667C10.8334 9.19492 12.1504 7.50001 14.5834 7.50001C17.0163 7.50001 18.3334 9.19492 18.3334 11.6667V12.5H12.5739C12.8001 13.6476 13.5396 14.1667 14.6982 14.1667ZM16.5955 10.8333C16.3886 9.74187 15.7278 9.16667 14.5834 9.16667C13.4389 9.16667 12.7781 9.74187 12.5712 10.8333H16.5955ZM3.33335 9.16667V5.83334H5.83335C6.75383 5.83334 7.50002 6.57953 7.50002 7.50001C7.50002 8.42048 6.75383 9.16667 5.83335 9.16667H3.33335Z" fill="#232323"/>
</svg>
