<svg width="20" height="20" viewBox="0 0 20 20" fill="none" xmlns="http://www.w3.org/2000/svg">
<path fill-rule="evenodd" clip-rule="evenodd" d="M8.34769 16.6697C8.35202 16.7721 8.34098 16.872 8.31942 16.9731C8.28154 17.1507 8.20839 17.3387 8.10484 17.5125C7.81049 18.0063 7.31045 18.3358 6.66667 18.3358C5.15008 18.3358 4.55486 17.5917 3.8096 15.7286C3.30486 14.4667 3.06675 14.1691 2.5 14.1691L2.5 12.5024C4.01658 12.5024 4.6118 13.2465 5.35706 15.1096C5.8618 16.3715 6.09992 16.6691 6.66667 16.6691C6.66667 16.4273 6.66335 16.2131 6.65639 15.923C6.64005 15.2432 6.63817 15.1044 6.66783 14.9227C6.67969 14.5259 6.78211 14.2444 6.9875 13.965C5.12766 13.5602 3.87327 12.724 3.15331 11.3678L2.88361 10.7336C2.62087 9.97849 2.5 9.12293 2.5 8.13485C2.5 6.99688 2.84696 5.9794 3.49502 5.12888C3.29286 4.32043 3.32054 3.33267 3.76692 2.21716L3.91278 1.85265L4.28672 1.73304C4.33679 1.71702 4.39765 1.70256 4.46916 1.69134C5.1973 1.57706 6.23342 1.84972 7.58796 2.71736C8.38647 2.53226 9.22737 2.4388 10.074 2.4388C10.8305 2.4388 11.5829 2.51507 12.3014 2.66544C13.6192 1.84016 14.6269 1.58132 15.3354 1.69148C15.4061 1.70247 15.4663 1.71666 15.516 1.73241L15.8923 1.85173L16.0383 2.21846C16.4288 3.19907 16.4958 4.10279 16.3537 4.89356C17.0987 5.78749 17.5 6.88647 17.5 8.13485C17.5 9.18729 17.4246 9.97868 17.2079 10.7486L16.9791 11.3764C16.3802 12.7311 15.0596 13.5767 13.0229 13.9794C13.2346 14.2725 13.3333 14.57 13.3333 15.0024V15.8358C13.3333 16.2396 13.3333 16.252 13.3324 16.6691C13.3343 16.699 13.3368 16.7137 13.3395 16.7229C13.3389 16.7231 13.3333 18.3358 13.3333 18.3358C12.6235 18.3358 12.0957 17.9896 11.8361 17.4435C11.7016 17.1604 11.6614 16.8901 11.6667 16.6573V15.0024C11.6667 14.9326 11.6642 14.9285 11.4941 14.7584C11.0392 14.3035 10.8333 13.9603 10.8333 13.3358V12.5819L11.5834 12.5066C13.8161 12.2824 15.0304 11.6623 15.4331 10.7565L15.6212 10.2422C15.7709 9.70434 15.8333 9.04937 15.8333 8.13485C15.8333 7.16311 15.4941 6.36038 14.8525 5.71904L14.4998 5.36652L14.6438 4.88912C14.7716 4.465 14.802 3.96315 14.6668 3.39074C14.6443 3.39643 14.6209 3.40264 14.5967 3.40939C14.1505 3.53362 13.5934 3.80017 12.922 4.2489L12.6158 4.45357L12.2584 4.36493C11.567 4.19349 10.824 4.10547 10.074 4.10547C9.23989 4.10547 8.41539 4.21159 7.65372 4.41924L7.282 4.52057L6.96402 4.30304C6.26969 3.82805 5.69288 3.54558 5.23035 3.41363C5.19732 3.4042 5.16587 3.39577 5.13597 3.38826C4.9746 4.05075 5.03843 4.59504 5.20186 5.00346L5.39782 5.49317L5.03907 5.87984C4.46741 6.49599 4.16667 7.2458 4.16667 8.13485C4.16667 8.94881 4.26195 9.62328 4.43657 10.1313L4.65464 10.6475C5.19978 11.6705 6.35767 12.2859 8.42215 12.5072L9.16667 12.587V13.3358C9.16667 13.9603 8.96076 14.3035 8.50592 14.7584C8.33576 14.9285 8.33333 14.9326 8.33333 15.0024L8.31897 15.1565C8.30946 15.207 8.30946 15.3375 8.32257 15.883C8.3286 16.1339 8.33204 16.3325 8.33303 16.54C8.34299 16.583 8.34449 16.6107 8.34769 16.6697Z" fill="#232323"/>
</svg>
