<svg width="20" height="20" viewBox="0 0 20 20" fill="none" xmlns="http://www.w3.org/2000/svg">
<path fill-rule="evenodd" clip-rule="evenodd" d="M13.3334 1.66666H6.66669C3.90526 1.66666 1.66669 3.90523 1.66669 6.66666V13.3333C1.66669 16.0947 3.90526 18.3333 6.66669 18.3333H13.3334C16.0948 18.3333 18.3334 16.0947 18.3334 13.3333V6.66666C18.3334 3.90523 16.0948 1.66666 13.3334 1.66666ZM3.33335 6.66666C3.33335 4.82571 4.82574 3.33332 6.66669 3.33332H13.3334C15.1743 3.33332 16.6667 4.82571 16.6667 6.66666V13.3333C16.6667 15.1743 15.1743 16.6667 13.3334 16.6667H6.66669C4.82574 16.6667 3.33335 15.1743 3.33335 13.3333V6.66666ZM10 14.1667C7.69883 14.1667 5.83335 12.3012 5.83335 9.99999C5.83335 7.6988 7.69883 5.83332 10 5.83332C12.3012 5.83332 14.1667 7.6988 14.1667 9.99999C14.1667 12.3012 12.3012 14.1667 10 14.1667ZM10 12.5C11.3807 12.5 12.5 11.3807 12.5 9.99999C12.5 8.61928 11.3807 7.49999 10 7.49999C8.61931 7.49999 7.50002 8.61928 7.50002 9.99999C7.50002 11.3807 8.61931 12.5 10 12.5ZM15 5.83332C15 6.29356 14.6269 6.66666 14.1667 6.66666C13.7064 6.66666 13.3334 6.29356 13.3334 5.83332C13.3334 5.37309 13.7064 4.99999 14.1667 4.99999C14.6269 4.99999 15 5.37309 15 5.83332Z" fill="#232323"/>
</svg>
