<svg width="20" height="20" viewBox="0 0 20 20" fill="none" xmlns="http://www.w3.org/2000/svg">
<path fill-rule="evenodd" clip-rule="evenodd" d="M3.33335 1.66666H16.6667C17.5872 1.66666 18.3334 2.41285 18.3334 3.33332V16.6667C18.3334 17.5871 17.5872 18.3333 16.6667 18.3333H3.33335C2.41288 18.3333 1.66669 17.5871 1.66669 16.6667V3.33332C1.66669 2.41285 2.41288 1.66666 3.33335 1.66666ZM3.33335 3.33332V16.6667H16.6667V3.33332H3.33335ZM10.8334 7.49999C10.4019 7.49999 9.94606 7.63187 9.54348 7.87678L9.16669 7.49999H8.33335V13.3333H10V9.99999C10 9.5202 10.495 9.16666 10.8334 9.16666H11.6667C12.0051 9.16666 12.5 9.5202 12.5 9.99999V13.3333H14.1667V9.99999C14.1667 8.45597 12.8283 7.49999 11.6667 7.49999H10.8334ZM6.66669 6.66666C7.12692 6.66666 7.50002 6.29356 7.50002 5.83332C7.50002 5.37309 7.12692 4.99999 6.66669 4.99999C6.20645 4.99999 5.83335 5.37309 5.83335 5.83332C5.83335 6.29356 6.20645 6.66666 6.66669 6.66666ZM5.83335 7.49999V13.3333H7.50002V7.49999H5.83335Z" fill="#232323"/>
</svg>
